<?xml version="1.0" encoding="UTF-8" standalone="no"?>
<svg
   xmlns:dc="http://purl.org/dc/elements/1.1/"
   xmlns:cc="http://creativecommons.org/ns#"
   xmlns:rdf="http://www.w3.org/1999/02/22-rdf-syntax-ns#"
   xmlns:svg="http://www.w3.org/2000/svg"
   xmlns="http://www.w3.org/2000/svg"
   version="1.1"
   id="svg2"
   viewBox="0 0 330.92969 445.93749"
   >
  <defs
     id="defs4" />
  <metadata
     id="metadata7">
    <rdf:RDF>
      <cc:Work
         rdf:about="">
        <dc:format>image/svg+xml</dc:format>
        <dc:type
           rdf:resource="http://purl.org/dc/dcmitype/StillImage" />
        <dc:title></dc:title>
      </cc:Work>
    </rdf:RDF>
  </metadata>
  <g
     transform="translate(-269.0296,-134.75778)"
     id="layer1">
    <path
       id="path3360"
       d="m 494.5296,134.75778 c -0.82501,0 -1.5,0.5057 -1.5,1.12304 0,0.78503 -0.37505,0.81014 -1.25,0.084 -0.76421,-0.63423 -8.94853,-1.06899 -21.0332,-1.11719 -16.6803,-0.0665 -19.87186,0.15577 -20.35547,1.41602 -0.31544,0.82204 -1.03135,1.49414 -1.58985,1.49414 -0.57987,0 -0.47546,-0.65057 0.24414,-1.51758 1.11532,-1.34389 0.01,-1.4953 -9.62695,-1.3125 -8.44798,0.16025 -11.18551,0.55575 -12.21875,1.76758 -1.20108,1.40868 -1.28316,1.40327 -0.83008,-0.0625 0.42723,-1.38217 -0.52206,-1.64584 -6.34961,-1.76563 -3.98931,-0.082 -7.13197,0.31115 -7.52148,0.94141 -1.03777,1.67915 0.51785,2.58146 1.58594,0.91992 0.83001,-1.29114 1.06734,-1.2873 1.93164,0.0293 1.3379,2.0381 1.25681,3.88258 -0.0879,2 -0.86079,-1.2051 -0.9743,-1.05765 -0.57813,0.75 0.4861,2.21791 -0.81936,3.25089 -1.50586,1.1914 -0.19423,-0.58271 -1.46988,0.16376 -2.83398,1.66016 -1.3641,1.49639 -1.80548,2.35082 -0.98047,1.89844 0.825,-0.45238 0.4163,0.36803 -0.9082,1.82226 -1.32448,1.45424 -3.24269,2.90837 -4.26368,3.23242 -1.021,0.32405 -1.59865,1.00717 -1.2832,1.51758 0.31545,0.5104 -0.27396,0.92774 -1.31055,0.92774 -1.0366,0 -2.95474,1.13808 -4.26172,2.52929 -1.30696,1.39121 -3.01002,2.28572 -3.78515,1.98828 -0.98651,-0.37856 -1.21934,-0.0436 -0.77539,1.11329 0.53754,1.40082 0.395,1.45453 -0.93164,0.35351 -1.2293,-1.02023 -1.82308,-1.03771 -2.77149,-0.082 -0.94523,0.95246 -0.87361,1.08981 0.32813,0.63281 1.06793,-0.40612 1.58475,0.08 1.69922,1.59961 0.0905,1.20155 0.74978,2.60163 1.46484,3.11133 0.87676,0.62497 0.48479,0.74196 -1.20117,0.35547 -1.375,-0.3152 -3.31367,-0.58089 -4.30859,-0.58789 -1.06607,-0.008 -1.52825,-0.46863 -1.125,-1.1211 0.47023,-0.76085 -0.0572,-0.87423 -1.68946,-0.36523 -4.03337,1.25772 -6.87695,2.40706 -6.87695,2.78125 0,0.56765 3.89918,0.12818 4.53906,-0.51172 0.31807,-0.31803 1.42742,-0.35723 2.46485,-0.0859 2.99117,0.78222 0.18207,2.96998 -3.17969,2.47657 -1.55327,-0.22797 -2.82422,-0.0257 -2.82422,0.44921 0,1.05786 7.53992,1.15734 8.58398,0.11329 1.07179,-1.07179 4.64676,-0.9313 3.97461,0.15625 -0.30822,0.49871 0.38591,0.66 1.54297,0.35742 1.15705,-0.30257 2.39574,-0.0823 2.75195,0.49023 0.3562,0.57256 1.99649,1.20072 3.64649,1.39453 4.58372,0.53842 5.69941,2.6636 3.18359,6.06641 -1.97289,2.66849 -1.99023,2.90625 -0.35156,4.54492 1.63866,1.63866 1.76069,1.6029 2.35352,-0.66406 0.58918,-2.25302 0.70335,-2.28533 1.95312,-0.57617 1.15421,1.57848 1.04199,1.95637 -0.86328,2.90625 -1.75877,0.87684 -3.07556,0.64302 -6.68359,-1.1836 -3.91268,-1.98085 -4.60302,-2.07712 -5.34571,-0.75 -0.97735,1.74643 -0.18502,3.51469 1.56446,3.49219 0.7328,-0.009 0.61239,-0.42232 -0.31055,-1.07422 -1.10839,-0.7829 -0.46786,-0.88835 2.45117,-0.40234 2.17271,0.36175 4.42271,1.23075 5,1.92969 3.60577,4.36556 12.90765,6.70976 10.3457,2.60742 -1.57119,-2.51587 -0.42507,-3.63685 2.44922,-2.39649 2.56818,1.10826 6.78042,0.60403 4.86133,-0.58203 -0.65366,-0.40399 0.24398,-0.73242 2.00391,-0.73242 2.58347,0 3.39145,0.53677 4.25781,2.83203 1.73023,4.58389 2.85211,3.26432 2.47851,-2.91601 -0.31078,-5.14158 -0.15064,-5.71694 1.50391,-5.4336 1.0365,0.17751 1.57785,-0.12078 1.23242,-0.67969 -0.33916,-0.54878 -0.15858,-1.28148 0.40039,-1.62695 0.55897,-0.34546 1.01563,-0.14767 1.01563,0.43945 0,0.68628 0.62494,0.75307 1.75,0.18555 0.9625,-0.48551 3.63046,-1.84953 5.92773,-3.03125 2.34918,-1.20813 4.43,-1.7382 4.75586,-1.21094 0.31866,0.5156 0.0152,1.16481 -0.67578,1.44336 -0.69093,0.27856 -0.80781,0.52764 -0.25781,0.55274 1.85402,0.0847 5.67034,-3.80459 4.92187,-5.01563 -0.46141,-0.74659 -0.30039,-0.91576 0.43555,-0.46093 0.67084,0.4146 2.4807,-0.59594 4.26367,-2.37891 2.34861,-2.34862 3.41521,-2.83356 4.41016,-2.00781 1.03475,0.85875 1.20595,0.60032 0.80664,-1.21875 l -0.50781,-2.30664 1.92383,2.35937 c 1.71536,2.10582 2.15428,2.21489 4.08398,1.00977 1.18949,-0.74284 2.16211,-1.64783 2.16211,-2.01172 0,-1.28766 6.13988,-2.77866 9.04687,-2.19727 1.73039,0.34608 3.56935,0.0737 4.45118,-0.6582 1.13467,-0.94172 1.50195,-0.95436 1.50195,-0.0527 0,0.7133 0.70443,0.48894 1.75,-0.55664 1.65206,-1.65209 1.76987,-1.65223 2.08398,-0.0215 0.183,0.95009 1.083,1.6527 2,1.5625 3.44403,-0.33877 5.26393,0.10113 4.63477,1.11914 -0.8386,1.35688 4.71873,0.83155 5.84766,-0.55273 0.44853,-0.55 0.52973,0.0125 0.18164,1.25 -0.74297,2.64132 0.20952,2.84468 3.27539,0.69726 2.16381,-1.51558 2.1939,-1.49013 1.22265,1.06445 -1.41449,3.72038 -1.3523,3.80719 2.25391,3.11524 1.90443,-0.36542 2.70885,-0.27416 1.94141,0.2207 -0.99192,0.6396 -0.69714,1.24528 1.21484,2.49805 1.38848,0.90976 3.16599,1.6543 3.94922,1.6543 0.78324,0 1.36155,0.7875 1.28515,1.75 -0.0764,0.9625 0.42188,1.6375 1.10938,1.5 0.6875,-0.1375 1.25,0.37098 1.25,1.1289 0,0.75791 1.0125,2.08723 2.25,2.95508 1.75585,1.23136 1.96085,1.77446 0.92969,2.47461 -1.01725,0.69069 -0.49159,1.77672 2.28125,4.7168 2.18566,2.31747 3.18321,4.07725 2.53711,4.47656 -0.5856,0.36192 2.43739,2.73842 6.71875,5.28125 4.28135,2.54283 7.93388,4.19436 8.11718,3.66992 0.1833,-0.52445 1.00899,-0.95312 1.83399,-0.95312 1.7035,0 1.32713,-2.16895 -0.48047,-2.77149 -0.6532,-0.21771 -1.1875,0.37237 -1.1875,1.31055 0,1.44484 -0.24289,1.50492 -1.58789,0.38867 -1.433,-1.18933 -1.39737,-1.38845 0.36133,-2.03906 2.5594,-0.94676 3.64843,-3.68295 1.39843,-3.51367 -0.919,0.0691 -1.67187,-0.55 -1.67187,-1.375 0,-0.825 0.5625,-1.3875 1.25,-1.25 0.6875,0.1375 1.25,0.0809 1.25,-0.12696 0,-1.4292 -3.17403,-7.52415 -4.48633,-8.61328 -0.88178,-0.73183 -1.34845,-1.99803 -1.03516,-2.81445 0.31329,-0.81642 -0.22736,-2.39605 -1.20312,-3.50977 -1.67348,-1.91011 -1.67614,-1.98871 -0.0254,-1.38672 1.7453,0.63647 2.37206,-0.34471 1.05859,-1.6582 -1.16744,-1.16745 -1.35895,-4.64062 -0.25586,-4.64062 0.57155,0 -0.1182,-1.2375 -1.5332,-2.75 -1.415,-1.5125 -2.89935,-3.1061 -3.29688,-3.54102 -0.39746,-0.43492 -1.62265,-1.43171 -2.72265,-2.2168 -1.97086,-1.40663 -1.96722,-1.42963 0.25,-1.46093 3.18671,-0.045 2.75087,-1.13295 -1.68555,-4.19922 -2.86491,-1.9801 -3.82365,-3.31036 -3.71289,-5.1543 0.0821,-1.36689 0.48593,-2.27813 0.89844,-2.02344 0.4125,0.25468 0.75,-0.23824 0.75,-1.0957 0,-0.85746 -0.47613,-1.55859 -1.05859,-1.55859 -0.58245,0 -0.78133,-0.45 -0.44141,-1 0.33992,-0.55 -0.24641,-1 -1.30469,-1 -1.0583,0 -3.1237,-0.94245 -4.58984,-2.09571 -2.061,-1.62118 -2.97983,-1.83869 -4.04688,-0.95312 -0.94716,0.78612 -1.5826,0.81725 -2.02734,0.0977 -0.35641,-0.57671 -2.53483,-0.99478 -4.83984,-0.92968 -3.95864,0.11176 -4.02509,0.15981 -1.19141,0.88086 2.85428,0.72629 2.87856,0.77476 0.5,1 -1.375,0.1302 -2.88876,0.16657 -3.36524,0.0801 -0.47649,-0.0865 -1.97916,0.57067 -3.33789,1.46094 -2.65346,1.73861 -4.43123,1.19491 -2.47851,-0.75781 1.61777,-1.61778 1.48347,-2.7832 -0.31836,-2.7832 z m -88.10156,0.0937 c -1.16824,0.13113 -4.33882,3.85749 -4.375,5.28125 -0.0122,0.48164 1.21405,-0.41836 2.72656,-2 1.51249,-1.58163 2.34832,-3.04771 1.85547,-3.25782 -0.0586,-0.025 -0.12915,-0.0322 -0.20703,-0.0234 z m 3.93554,1.81054 c -0.63021,0.0525 -1.54456,0.48746 -2.67968,1.39258 -1.92847,1.53771 -2.57402,2.74817 -2.10938,3.95899 0.89222,2.32509 1.55334,2.14417 4.12891,-1.12696 2.05566,-2.61082 2.04663,-4.34003 0.66015,-4.22461 z m -6.54687,5.09571 c -0.55,0 -0.7028,0.77301 -0.33985,1.71875 0.36288,0.94572 0.33444,1.39497 -0.0625,0.99804 -0.76851,-0.76852 -4.38476,2.03908 -4.38476,3.4043 0,0.44621 1.5514,-0.10325 3.44531,-1.2207 2.18165,-1.28719 3.24135,-2.55599 2.89258,-3.46485 -0.30277,-0.78901 -1.00079,-1.43554 -1.55078,-1.43554 z m -7.21289,4.39648 c -0.26693,0.0408 -0.64193,0.24474 -1.07422,0.60352 -0.82501,0.68469 -1.5,1.4014 -1.5,1.59179 0,0.19039 0.67499,0.0861 1.5,-0.23047 0.825,-0.31659 1.5,-1.03134 1.5,-1.58984 0,-0.29265 -0.15886,-0.41583 -0.42578,-0.375 z m 0.98633,2.60352 c -0.24255,0 -0.72063,0.45 -1.06055,1 -0.33992,0.55 -0.14104,1 0.44141,1 0.58244,0 1.05859,-0.45 1.05859,-1 0,-0.55 -0.19691,-1 -0.43945,-1 z m 112.10156,3.30273 c 0.21379,-0.0643 0.14601,0.3171 -0.11133,1.11719 -0.34835,1.08305 -0.0711,2.25782 0.63672,2.69531 0.6902,0.42657 0.90694,1.1243 0.48047,1.55078 -0.42648,0.42647 -1.20062,0.11376 -1.72071,-0.69531 -0.83001,-1.29114 -1.06735,-1.2873 -1.93164,0.0293 -0.54158,0.825 -0.992,0.98789 -1,0.36132 -0.008,-0.62656 0.92233,-2.20157 2.06836,-3.5 0.86829,-0.98374 1.36433,-1.49432 1.57813,-1.55859 z m 8.2793,0.69727 c 1.13246,0 2.05859,0.45 2.05859,1 0,0.55 -0.64692,1 -1.43945,1 -0.79254,0 -1.72063,-0.45 -2.06055,-1 -0.33992,-0.55 0.30892,-1 1.44141,-1 z m -121.69727,6.12109 c 0.17853,-0.0442 0.55126,0.0275 1.08789,0.2207 1.00748,0.36263 2.60869,0.65821 3.55859,0.65821 0.94989,0 2.60232,0.66124 3.66993,1.46875 1.44776,1.09502 1.55819,1.45682 0.43945,1.42382 -2.06867,-0.0611 -7.67802,-2.19453 -8.67774,-3.30078 -0.24074,-0.26639 -0.25665,-0.42651 -0.0781,-0.4707 z m 68.50391,0.21094 c 0.82423,0.059 0.56105,0.45306 -0.57618,1.78125 -1.95977,2.28885 -1.83396,2.28082 -2.39453,0.13672 -0.32875,-1.25739 0.17156,-1.78782 1.77735,-1.88672 0.52418,-0.0323 0.91861,-0.0509 1.19336,-0.0312 z m -96.32813,8.83593 c -1.94198,-0.0305 -3.41992,0.16837 -3.41992,0.67969 0,0.62046 0.7875,1.06312 1.75,0.98242 0.96249,-0.0807 2.64999,-0.0306 3.75,0.11133 1.74154,0.22476 1.67693,0.36142 -0.5,1.0586 l -2.5,0.80078 2.81055,0.0996 c 1.7708,0.0628 2.55738,0.50593 2.1289,1.19922 -0.41898,0.67792 0.23008,0.61017 1.69141,-0.17774 1.30388,-0.70302 4.39413,-1.24984 6.86914,-1.21484 3.75258,0.053 3.9212,-0.015 1.00586,-0.4043 -1.92279,-0.25677 -4.02993,-0.90834 -4.68164,-1.44922 -1.13873,-0.94505 -5.66767,-1.63467 -8.9043,-1.68555 z m 45.12891,1.31446 c 0.70159,-0.003 1.45117,0.41649 1.45117,1.07617 0,0.24254 -0.70113,0.44141 -1.55859,0.44141 -0.85749,0 -1.27515,-0.45666 -0.92969,-1.01563 0.21405,-0.34634 0.61615,-0.50027 1.03711,-0.50195 z m -19.38282,0.51758 c -3.05882,0 -5.16601,1.06354 -5.16601,2.60742 0,0.76616 0.45,1.39258 1,1.39258 0.54999,0 1,-0.37391 1,-0.83008 0,-0.45617 0.96856,-0.7937 2.15039,-0.75 1.18185,0.0437 2.34304,-0.48242 2.58203,-1.16992 0.25321,-0.72839 -0.40008,-1.25 -1.56641,-1.25 z m -120.78125,0.32617 c -0.0389,0.0103 -0.0747,0.0317 -0.10742,0.0644 -0.26213,0.26213 -0.18089,0.95638 0.18164,1.54297 0.0473,0.0766 0.0894,0.12748 0.13477,0.19531 0.12794,-0.45981 0.25714,-0.91944 0.3789,-1.38086 -0.20702,-0.29511 -0.42201,-0.46585 -0.58789,-0.42187 z m 125.25977,1.1914 c -0.61654,-0.0361 -1.01837,0.34908 -1.4668,1.22071 -0.49877,0.96949 -0.70469,2.32665 -0.45703,3.01758 0.24765,0.6909 0.87082,0.99807 1.38281,0.68164 0.512,-0.31643 0.6278,-1.06544 0.25782,-1.66407 -0.43923,-0.71069 0.0744,-0.89163 1.48242,-0.52343 2.69281,0.70418 2.82936,-0.81896 0.19922,-2.22657 -0.58092,-0.31089 -1.02852,-0.4842 -1.39844,-0.50586 z m 125.24023,0.53321 c 0.31634,0.0126 0.85558,0.31876 1.61524,0.94922 0.85158,0.70675 1.31673,1.51726 1.0332,1.80078 -0.28351,0.28352 -0.004,1.12946 0.61914,1.88086 0.62361,0.75139 0.86866,1.63133 0.54492,1.95507 -0.32374,0.32373 -1.49619,-0.9025 -2.60546,-2.72656 -1.51579,-2.49251 -1.90298,-3.88719 -1.20704,-3.85937 z m -139.23828,0.97265 c -0.38467,0.0501 -0.64648,0.38072 -0.64648,1.03516 0,0.58246 0.45,0.78133 1,0.44141 0.54999,-0.33992 1,-0.14106 1,0.4414 0,0.58246 -1.01251,1.12041 -2.25,1.19531 l -2.25,0.13672 2.26562,0.4336 c 1.24567,0.23942 2.009,0.84913 1.69727,1.35351 -0.31172,0.50438 0.13277,0.64786 0.98633,0.32032 1.83577,-0.70445 1.86722,-0.92179 0.51562,-3.44727 -0.69327,-1.2954 -1.67724,-1.99358 -2.31836,-1.91016 z m 145.89063,0.51758 c 0.19096,-0.0595 0.66157,0.191 1.50976,0.7207 1.31494,0.8212 1.55458,1.36601 0.71485,1.63477 -0.69293,0.22178 -1.53514,0.82424 -1.8711,1.33789 -0.33596,0.51365 -0.89304,0.19656 -1.23828,-0.70312 -0.41703,-1.08677 -0.24036,-1.39365 0.5293,-0.91797 0.77162,0.47688 0.94696,0.165 0.52539,-0.9336 -0.27211,-0.70912 -0.36089,-1.07919 -0.16992,-1.13867 z m -166.16602,0.5625 c -0.22707,-0.0804 -0.14581,0.2987 0.19336,1.18945 0.37553,0.98622 0.93624,1.54227 1.24414,1.23438 0.30789,-0.30789 -1.8e-4,-1.11463 -0.68359,-1.79297 -0.37036,-0.3676 -0.61766,-0.58261 -0.75391,-0.63086 z m 28.08985,0.32227 c -0.13339,-0.008 -0.24467,0.0259 -0.32422,0.10547 -0.31819,0.31819 0.0835,0.99614 0.89258,1.50781 2.11696,1.33881 2.39377,1.17572 0.95117,-0.5625 -0.52179,-0.62872 -1.11937,-1.02605 -1.51953,-1.05078 z m -102.46094,3.57422 c -1.11717,0 -1.3694,3.29661 -0.33203,4.33398 1.10235,1.10234 1.33203,0.78408 1.33203,-1.83398 0,-1.375 -0.45001,-2.5 -1,-2.5 z m 99.70117,0 c -1.54053,0 -3.70117,1.98477 -3.70117,3.40039 0,0.59425 0.45639,0.54556 1.12305,-0.1211 0.61703,-0.61702 1.74203,-0.88461 2.5,-0.59375 0.81853,0.3141 1.37695,-0.12368 1.37695,-1.07812 0,-0.88385 -0.58383,-1.60742 -1.29883,-1.60742 z m -7.7832,0.12304 c -0.3474,-0.0143 -0.74454,0.0489 -1.10547,0.19336 -0.79773,0.31922 -0.55948,0.55747 0.60547,0.60547 1.05416,0.0434 1.64479,-0.1931 1.3125,-0.52539 -0.16614,-0.16612 -0.4651,-0.25913 -0.8125,-0.27344 z m -15.0293,2.02344 c -0.53815,0.0348 -0.75047,0.26497 -0.45312,0.74609 0.37627,0.60881 0.15176,1.10743 -0.49805,1.10743 -0.90737,0 -0.90811,0.33042 -0.004,1.41992 0.93044,1.12111 0.79921,1.63909 -0.62695,2.46875 -1.61961,0.94221 -1.54932,1.06592 0.69336,1.19726 2.12694,0.12456 2.20155,0.22704 0.5,0.6836 -2.56101,0.68717 6.00509,3.23789 12.5,3.72265 2.475,0.18473 5.49899,0.71634 6.71875,1.18164 2.69819,1.02924 24.27034,1.1196 24.27734,0.10157 0.003,-0.39875 1.40175,-0.4466 3.10742,-0.10547 2.81425,0.56285 4.82362,-0.56032 4.88282,-2.73047 0.008,-0.30876 -3.69688,-0.5338 -8.23438,-0.5 -4.5375,0.0338 -10.95,-0.32952 -14.25,-0.80664 -3.3,-0.47713 -6.83117,-0.83909 -7.8457,-0.80469 -1.499,0.0508 -1.72663,-0.44275 -1.21875,-2.63281 0.34373,-1.48224 0.27295,-2.20257 -0.15625,-1.60156 -0.42921,0.60101 -2.3101,1.38975 -4.17969,1.7539 -2.6924,0.52442 -4.04586,0.16836 -6.50976,-1.71094 -2.53966,-1.93709 -7.08867,-3.59447 -8.70313,-3.49023 z m -7.9707,1.97656 c -0.3474,-0.0143 -0.74454,0.0489 -1.10547,0.19336 -0.79773,0.31922 -0.55948,0.55747 0.60547,0.60547 1.05416,0.0434 1.64479,-0.19309 1.3125,-0.52539 -0.16614,-0.16617 -0.4651,-0.25912 -0.8125,-0.27344 z m 12.08203,0.87696 c 0.54999,0 1,0.45 1,1 0,0.55 -0.45001,1 -1,1 -0.55,0 -1,-0.45 -1,-1 0,-0.55 0.45,-1 1,-1 z m 161.94141,0 c 0.58244,0 1.05859,0.45 1.05859,1 0,0.55 -0.19691,1 -0.43945,1 -0.24255,0 -0.72063,-0.45 -1.06055,-1 -0.33992,-0.55 -0.14104,-1 0.44141,-1 z m -169.52344,0.45507 c -0.0773,-0.0155 -0.17499,-0.0156 -0.29297,0.002 -0.1573,0.0234 -0.34979,0.0767 -0.57227,0.16211 -0.85357,0.32755 -1.55273,0.77212 -1.55273,0.98828 0,0.80991 1.90689,0.3545 2.49414,-0.59571 0.19707,-0.31885 0.15559,-0.51017 -0.0762,-0.55664 z m 46.14258,0.54493 c 0.24254,0 0.43945,0.45 0.43945,1 0,0.55 -0.47613,1 -1.05859,1 -0.58245,0 -0.78133,-0.45 -0.44141,-1 0.33992,-0.55 0.81801,-1 1.06055,-1 z m 126.43945,2 c 0.55,0 1,0.45 1,1 0,0.55 -0.45,1 -1,1 -0.55,0 -1,-0.45 -1,-1 0,-0.55 0.45,-1 1,-1 z m -6.77539,10.50781 c -0.73687,-0.0226 -1.26925,0.13643 -1.61133,0.47851 -0.68417,0.68416 -0.47193,1.01368 0.65234,1.01368 0.91565,0 2.17654,0.95471 2.80079,2.12109 0.79768,1.49048 0.8081,1.91912 0.0352,1.44141 -1.61769,-0.99978 -1.34262,0.85136 0.64844,4.34961 2.02331,3.55491 2.70485,3.93449 1.96094,1.08984 -0.28751,-1.09946 -0.11305,-2.25163 0.38671,-2.56055 0.5355,-0.33097 0.49707,-1.33156 -0.0937,-2.43554 -1.41774,-2.64907 -1.2888,-2.8865 1.24609,-2.2754 3.42062,0.82464 0.89614,-1.24212 -3.18555,-2.60742 -1.16047,-0.38817 -2.10298,-0.59263 -2.83984,-0.61523 z m 12.54687,5.49219 c -0.5853,0 -0.48908,0.63541 0.22852,1.5 0.6847,0.825 1.4014,1.5 1.5918,1.5 0.1904,0 0.0881,-0.675 -0.22852,-1.5 -0.3166,-0.825 -1.0333,-1.5 -1.5918,-1.5 z m -4.15429,0.6914 c -0.0484,0.0506 0.0817,0.28263 0.40625,0.70313 1.3489,1.74785 1.29295,1.8416 -0.71875,1.20312 -2.0003,-0.63487 -2.17435,-0.35835 -2.12305,3.35547 0.0522,3.78107 0.2452,4.04688 2.9375,4.04688 1.5851,0 2.88086,-0.53922 2.88086,-1.19922 0,-0.93333 0.26777,-0.93333 1.20117,0 1.6332,1.63321 2.79883,1.50741 2.79883,-0.30078 0,-0.825 -0.675,-1.5 -1.5,-1.5 -0.825,0 -1.5,-0.59705 -1.5,-1.32618 0,-0.72912 -1.22285,-2.41662 -2.71875,-3.75 -1.00625,-0.89693 -1.58349,-1.31668 -1.66406,-1.23242 z m 10.47656,6.3086 c -0.4985,0 -0.67041,0.9 -0.38281,2 0.2877,1.1 0.69535,2 0.90625,2 0.2109,0 0.38281,-0.9 0.38281,-2 0,-1.1 -0.40775,-2 -0.90625,-2 z m -9.24414,5.46484 c -2.6749,-0.0332 -3.48656,0.31653 -3.09766,1.33008 0.3847,1.00243 0.72135,1.05722 1.24805,0.20508 0.5089,-0.82347 0.90148,-0.70093 1.33008,0.41601 0.8627,2.2481 4.91832,2.10327 4.48242,-0.16016 -0.2439,-1.26629 -1.33189,-1.75841 -3.96289,-1.79101 z m 6.37304,2.61133 c -0.60117,0.009 -1.57527,0.65649 -2.73632,1.93945 -1.7677,1.95326 -1.7641,2.06138 0.0957,3.48242 2.3344,1.78376 4.91797,1.51505 4.91797,-0.51172 0,-0.81747 -0.51539,-1.38822 -1.14649,-1.26953 -0.6803,0.12787 -0.93741,-0.58529 -0.63281,-1.75 0.33215,-1.27011 0.10314,-1.89994 -0.49805,-1.89062 z m -2.48046,8.10742 c -0.16125,-0.007 -0.27838,0.0206 -0.34571,0.0879 -0.2383,0.23826 1.26304,1.59825 3.33594,3.02148 4.3114,2.96018 7.78644,3.67591 4.15234,0.85547 -2.76937,-2.14936 -6.01388,-3.91693 -7.14257,-3.96484 z m 9.40234,0.2793 c -0.0678,0.008 -0.13293,0.0298 -0.19531,0.0684 -0.5161,0.31891 -0.39245,1.38574 0.28515,2.4707 1.4765,2.3643 2.17226,1.85353 1.28516,-0.94141 -0.3192,-1.00576 -0.90035,-1.65691 -1.375,-1.59765 z m -5.57812,5.14843 c -0.1116,-0.0133 -0.20723,-0.008 -0.28516,0.0117 -0.51955,0.13404 -0.27502,0.98282 0.91992,2.17774 0.66,0.66 1.56,1.19922 2,1.19922 1.4734,0 0.81923,-1.50581 -1.20117,-2.76758 -0.61586,-0.3846 -1.09881,-0.58121 -1.43359,-0.6211 z m -4.07618,3.55274 c -0.9133,-0.0292 -1.97524,0.71439 -3.97656,2.34961 l -2.98828,2.4414 3.31836,0.66407 c 2.161,0.43221 2.87919,0.9342 2.05859,1.4414 -1.6933,1.04648 -1.90262,4.93946 -0.26562,4.93946 0.7459,0 1.05646,-0.64017 0.72656,-1.5 -0.3166,-0.825 -0.0776,-1.5 0.53125,-1.5 0.6088,0 1.10547,0.64489 1.10547,1.43164 0,0.78675 1.0125,1.62492 2.25,1.86328 1.2375,0.23835 2.5875,0.49346 3,0.56836 0.4125,0.0749 0.75,-0.31328 0.75,-0.86328 0,-0.55 -0.45,-1 -1,-1 -0.55,0 -1,-0.62643 -1,-1.39258 0,-0.76616 -0.7027,-1.66223 -1.5625,-1.99219 -0.8598,-0.32996 -1.28075,-1.05865 -0.93555,-1.61719 0.3452,-0.55853 -0.4146,-1.43288 -1.6875,-1.94336 -2.2518,-0.90311 -1.04716,-1.53597 2.08594,-1.0957 1.0994,0.1545 1.06197,-0.14119 -0.17774,-1.38086 -0.9016,-0.90161 -1.52207,-1.39137 -2.23242,-1.41406 z m 8.20118,3.85156 c -0.7156,0.009 -0.59271,0.40192 0.30859,0.98438 1.9211,1.24153 2.2673,1.24153 1.5,0 -0.3399,-0.55 -1.15352,-0.99238 -1.80859,-0.98438 z m -280.25782,1.88867 c -0.10728,0.35392 -0.19762,0.65902 -0.30664,1.01758 0.45424,-0.1543 0.61634,-0.52963 0.34375,-0.9707 -0.0113,-0.0183 -0.0253,-0.0297 -0.0371,-0.0469 z m 274.58008,7.23438 c -0.38848,-0.01 -0.8168,0.006 -1.26367,0.0488 -2.8577,0.27554 -3.2869,0.70478 -3.5625,3.5625 -0.2001,2.07502 0.13061,3.25 0.91601,3.25 0.6765,0 0.92915,0.30133 0.56055,0.66992 -0.3686,0.3686 0.023,1.72912 0.87109,3.02344 0.84812,1.29432 1.47077,2.90549 1.38477,3.58007 -0.3182,2.4872 0.10908,3.72011 1.20508,3.47657 0.6187,-0.1375 1.35326,0.37461 1.63086,1.13867 0.3244,0.89292 0.0734,1.12327 -0.70117,0.64453 -0.9179,-0.56732 -1.06298,1.00852 -0.60938,6.61133 1.1125,13.74245 1.75196,17.05278 3.66406,18.96484 1.0401,1.04016 2.67813,1.883 3.64063,1.875 1.0911,-0.01 1.33257,-0.29194 0.63867,-0.75 -1.4017,-0.92537 -1.10853,-5.49445 0.38477,-5.99219 0.6132,-0.20444 0.88366,-1.12967 0.60156,-2.05664 -0.2821,-0.92696 0.21176,-0.56054 1.09765,0.81446 l 1.61133,2.5 -0.64843,-2.375 c -0.47,-1.72027 -0.31505,-2.16852 0.56445,-1.625 0.8719,0.53887 1.02541,0.15102 0.54101,-1.375 -0.4244,-1.33722 -0.24316,-2.125 0.49024,-2.125 0.8229,0 1.00157,1.83719 0.60547,6.25 -0.4897,5.45403 -0.42644,5.80426 0.50586,2.75 0.5876,-1.925 1.68073,-5.44528 2.42773,-7.82227 1.1655,-3.70835 1.14638,-4.98581 -0.13672,-9 -0.8224,-2.57301 -1.94674,-5.48387 -2.49804,-6.46875 -1.2189,-2.17749 -0.11062,-4.59656 1.17578,-2.56641 0.5624,0.8877 0.865,0.9508 0.875,0.17969 0.008,-0.64822 -0.54948,-1.77322 -1.23828,-2.5 -0.6889,-0.72679 -2.1514,-3.12226 -3.25,-5.32226 -1.0987,-2.2 -2.33555,-4.15066 -2.74805,-4.33399 -0.4125,-0.18334 -0.75,-0.91779 -0.75,-1.63281 0,-1.80968 -4.27,-2.78766 -5.5,-1.25977 -1.1637,1.44547 -5.5,1.08371 -5.5,-0.45898 0,-0.57712 1.1208,-0.83395 2.5,-0.57031 1.375,0.26285 2.5,0.0633 2.5,-0.44532 0,-0.38143 -0.8209,-0.63165 -1.98633,-0.66015 z m -275.40039,0.20508 c -0.35859,-0.0603 -0.61328,0.16081 -0.61328,0.59765 0,0.46098 0.28556,0.84382 0.67578,0.98828 0.11636,-0.47419 0.24354,-0.9742 0.34375,-1.41601 -0.007,-0.004 -0.0127,-0.009 -0.0195,-0.0137 -0.1375,-0.085 -0.26719,-0.13616 -0.38672,-0.15625 z m 280.17969,2.77734 c 0.4967,0.0447 0.76251,0.83539 0.85156,2.37891 0.0793,1.37461 -0.22117,2.5 -0.66797,2.5 -0.4469,0 -1.52463,0.27357 -2.39453,0.60742 -2.0085,0.77074 -2.01664,-0.53917 -0.0234,-3.38477 1.01165,-1.44433 1.73768,-2.14632 2.23438,-2.10156 z m 1.76758,11.87891 c 0.2425,0 0.43945,0.45 0.43945,1 0,0.55 -0.4761,1 -1.05859,1 -0.58241,0 -0.78131,-0.45 -0.44141,-1 0.3399,-0.55 0.81805,-1 1.06055,-1 z m 18.22656,4.10937 c -0.77966,0 -1.90576,0.29704 -3.28711,0.89063 -1.676,0.72021 -1.4736,0.87078 1.25,0.92968 1.7875,0.0387 3.25,-0.37968 3.25,-0.92968 0,-0.59359 -0.43323,-0.89063 -1.21289,-0.89063 z m 4.61523,2.14063 c -1.9564,0 -2.21207,0.27224 -1.29687,1.375 0.6276,0.75625 1.48635,1.375 1.91015,1.375 0.4238,0 1.00863,-0.61875 1.29883,-1.375 0.3589,-0.93509 -0.25321,-1.375 -1.91211,-1.375 z m 24.21094,11.09375 c -0.35859,-0.0603 -0.61328,0.16081 -0.61328,0.59765 0,0.58246 0.45,1.0586 1,1.0586 0.14417,0 0.28017,-0.0145 0.4043,-0.0391 0.20035,-0.22943 0.34631,-0.39377 0.52539,-0.59961 -0.14267,-0.25505 -0.50268,-0.59742 -0.92969,-0.86132 -0.1375,-0.085 -0.26719,-0.13616 -0.38672,-0.15625 z m -96.69531,13.77929 c -0.3474,-0.0143 -0.74454,0.0489 -1.10547,0.19336 -0.79773,0.31922 -0.55948,0.55747 0.60547,0.60547 1.05416,0.0434 1.64479,-0.1931 1.3125,-0.52539 -0.16614,-0.16612 -0.4651,-0.25913 -0.8125,-0.27344 z m -9.53321,0.0762 c -2.21928,-0.0691 -5.70706,0.30951 -11.88476,1.19532 -4.47491,0.64164 -9.31408,1.85911 -15,3.77539 -3.30001,1.11217 -6.86616,2.19483 -7.92578,2.40429 -1.05963,0.20947 -2.38635,0.84143 -2.94922,1.4043 -0.56288,0.56288 -1.76442,1.02344 -2.66992,1.02344 -2.03911,0 -8.19477,2.96193 -9.18946,4.42187 -0.44486,0.65295 -0.741,0.38778 -0.75,-0.67187 -0.0168,-1.91619 -1.08196,-2.26432 -2.56445,-0.83594 -0.5225,0.50343 -2.07617,1.06761 -3.45117,1.25195 -1.60279,0.21487 -2.45365,0.93297 -2.37305,2.00391 0.0782,1.03968 -0.39844,1.46994 -1.26172,1.13867 -0.88318,-0.33891 -1.19449,-0.0307 -0.85742,0.84766 0.39452,1.0281 -0.36597,1.338 -2.98437,1.21484 -1.93239,-0.0909 -3.26392,0.23708 -2.95899,0.73047 0.30493,0.49339 -0.37144,0.89844 -1.5039,0.89844 -1.13246,0 -1.94805,0.49578 -1.81055,1.10156 0.36697,1.61675 -8.11458,3.91649 -12.75,3.45703 -11.10234,-1.10046 -14.5,-1.86106 -14.5,-3.24609 0,-0.78824 -0.49525,-1.12398 -1.10352,-0.74805 -0.60696,0.37512 -12.19446,0.78222 -25.75,0.90625 -23.48524,0.21489 -32.65889,0.9765 -30.1875,2.50391 0.61601,0.38071 -0.22755,0.6914 -1.875,0.6914 -1.64744,0 -2.76374,-0.37564 -2.48047,-0.83398 0.28326,-0.45833 -0.1855,-0.83203 -1.04296,-0.83203 -0.85746,0 -1.56055,0.47934 -1.56055,1.06641 0,0.61082 -0.85048,0.79729 -1.99024,0.43554 -1.4812,-0.47011 -2.89117,0.34657 -5.49804,3.1836 l -3.50391,3.81445 2.54883,0.5 c 2.52114,0.49444 2.52581,0.5163 0.49609,1.9707 -2.37246,1.69998 -2.78794,4.24836 -0.55273,3.39063 2.76389,-1.06061 1.53762,1.56865 -1.45313,3.11523 -1.62469,0.84016 -3.70029,3.10142 -4.61328,5.02539 -0.91298,1.92397 -2.08568,3.49805 -2.60547,3.49805 -0.51979,0 -0.66071,0.46002 -0.3125,1.02344 0.87163,1.41033 -0.4464,6.97656 -1.65234,6.97656 -0.53876,0 -0.71363,-0.43124 -0.38867,-0.95703 0.32495,-0.52579 -0.0989,-2.60459 -0.94141,-4.6211 -1.32702,-3.17602 -1.74433,-3.49159 -3.11328,-2.35546 -0.89202,0.74031 -1.39574,2.27842 -1.15625,3.53125 0.30122,1.57574 0.026,2.06562 -0.94922,1.6914 -1.75634,-0.67397 -9.31445,-11.18456 -9.31445,-12.95312 0,-1.99317 -3.77934,-1.61542 -4.90625,0.49023 -0.53779,1.00486 -1.28664,4.15486 -1.66406,7 -0.37742,2.84513 -1.01861,5.17383 -1.42578,5.17383 -1.52133,0 -1.91986,-7.3774 -0.5625,-10.42383 0.75418,-1.69268 1.40832,-3.75117 1.45312,-4.57617 0.0448,-0.825 0.19945,-2.61967 0.34375,-3.98828 0.20651,-1.95879 -0.2134,-2.51528 -1.97461,-2.61328 -1.23057,-0.0685 -3.48057,0.5203 -5,1.30859 -1.51944,0.78829 -2.98867,1.4071 -3.26367,1.375 -0.0977,-0.0114 -0.198,0.002 -0.29688,0 1.9131,5.69264 1.99521,1.40064 0.7793,10.7207 -1.52351,2.35698 -2.96176,5.21054 -4.61523,7.96094 0.41901,1.2556 0.7864,2.52854 1.0664,3.81641 0.36222,1.66602 1.0598,5.14607 1.26172,7.31054 0.36947,0.29647 0.73308,0.57862 1.10547,0.88282 0.0305,0.0249 0.0238,0.31404 0,0.72265 9.12274,-0.53337 7.05485,-0.19994 -0.041,0.56055 -0.0178,0.23972 -0.0295,0.43719 -0.0527,0.71289 2.49797,3.85417 4.50682,7.82044 3.73242,9.79688 3.14227,2.68953 4.07524,5.50877 6.4961,15.62109 0.10874,0.45426 0.17807,0.91841 0.22851,1.38672 0.59676,0.54046 1.19803,1.07781 1.81641,1.58789 0.0488,0.12735 0.0886,0.22664 0.13672,0.35156 2.06801,0.8814 3.9782,2.0604 5.75195,3.45313 -0.21928,-0.71368 -0.36468,-1.3042 -0.36523,-1.63477 -0.002,-1.19166 -0.56641,-2.43174 -1.25391,-2.75586 -0.6875,-0.32412 -0.125,-0.39018 1.25,-0.14844 20.19327,3.55016 25.63033,3.92202 40.63086,2.78125 17.59635,-1.33816 30.72851,-4.0253 40.74609,-8.33593 3.91784,-1.68588 7.69611,-3.16258 8.39453,-3.28125 1.61263,-0.27399 7.13546,-6.68188 7.18946,-8.3418 0.0223,-0.6875 0.37656,-1.25572 0.78906,-1.26172 1.00885,-0.0154 3.5317,-5.55195 7.7168,-16.93555 1.91026,-5.19599 4.55994,-10.53259 5.88671,-11.85937 2.56518,-2.56517 9.46754,-3.95788 13.99219,-2.82227 3.11373,0.7815 12.75335,14.99511 15.16016,22.35352 1.90791,5.8331 10.35876,15.3907 13.2832,15.02344 3.28925,-0.41307 13.7171,1.46446 14.46094,2.60351 0.52934,0.81057 0.97066,0.83057 1.5,0.0703 0.45721,-0.65667 5.23937,-1.10207 12.25,-1.14257 24.23508,-0.13988 59.06786,-9.3336 66.88476,-17.6543 2.1369,-2.27457 9.50574,-20.65025 10.67774,-26.625 0.54541,-2.78069 1.55041,-5.56849 2.74023,-7.78125 0.0472,-0.55447 0.0894,-1.03261 0.13672,-1.6582 0.56274,-2.94857 0.17759,-5.92862 0.11719,-8.91016 -0.0203,-6.5929 -0.34408,-12.84772 2.41016,-18.71289 -0.66625,-0.0393 -4.05379,-0.28433 -8.07618,-0.58594 -4.2771,-0.32071 -8.4381,-0.14099 -9.5,0.41211 -1.0494,0.54664 -2.77972,0.62631 -3.89062,0.17969 -1.8348,-0.73766 -1.7935,-0.81915 0.5,-1.00391 1.375,-0.11077 -0.2,-0.56008 -3.5,-0.99804 -3.3,-0.438 -8.925,-0.3983 -12.5,0.0898 -3.57501,0.48815 -9.65,0.96424 -13.5,1.05664 -3.85001,0.0924 -7.43029,0.41901 -7.95703,0.72656 -1.70377,0.99478 -5.54297,1.07625 -5.54297,0.11719 0,-0.51248 0.7875,-0.96832 1.75,-1.01172 1.35663,-0.0612 1.41283,-0.18916 0.25,-0.57226 -0.825,-0.27179 -2.48254,-0.97143 -3.68359,-1.55469 -0.72501,-0.35204 -1.60007,-0.55422 -2.93165,-0.59571 z m -16.38476,9.94141 c 0.94547,0 0.76063,0.31766 -0.5,0.85938 -1.10001,0.47269 -2.675,0.85937 -3.5,0.85937 -0.94548,0 -0.76064,-0.31765 0.5,-0.85937 1.1,-0.47269 2.67499,-0.85938 3.5,-0.85938 z m 55,1.16797 c 12.08642,-0.0725 13.53728,0.85788 14.39648,9.24414 0.4617,4.50647 0.30613,7.10104 -0.48047,8.04883 -0.6384,0.7692 -1.5544,1.39844 -2.0371,1.39844 -1.49451,0 -0.96861,-2.20824 0.87109,-3.6543 1.5791,-1.24123 1.49058,-1.31749 -0.91602,-0.77344 -2.6031,0.58847 -2.68266,0.4631 -3.32226,-5.23437 -0.9627,-8.57456 -0.57947,-8.21695 -9.21289,-8.61719 l -7.79883,-0.36133 8.5,-0.0508 z m -64.43555,0.33008 c 0.28011,0.0127 0.61717,0.0562 1.00781,0.13086 1.38149,0.26409 2.38134,0.58575 2.22071,0.71484 -1.17256,0.94233 -5.78797,1.33258 -6.28321,0.53125 -0.36549,-0.59136 0.0808,-0.72644 1.10352,-0.33398 1.05299,0.40406 1.47094,0.26206 1.08203,-0.36719 -0.2957,-0.47845 0.0288,-0.71393 0.86914,-0.67578 z m -6.74804,1.77734 c 0.69045,0.0131 1.15569,0.1557 1.42773,0.42774 0.72543,0.72543 0.34249,0.86134 -1.25586,0.44336 -1.58511,-0.41443 -2.07977,-0.24461 -1.5918,0.54492 0.44445,0.71915 0.18084,0.94227 -0.70703,0.60156 -1.35957,-0.52171 -11.81819,2.73789 -18.82617,5.86719 -1.849,0.82563 -4.89216,1.99722 -6.76172,2.60156 -3.50852,1.13415 -5.10156,1.36297 -5.10156,0.73633 0,-0.57729 20.93273,-8.37222 27.35156,-10.18555 2.54038,-0.71768 4.31405,-1.05888 5.46485,-1.03711 z M 346.0296,316.8808 c 0.63437,0 1.26875,0.0617 1.75,0.1875 0.96249,0.25153 0.17499,0.45703 -1.75,0.45703 -1.925,0 -2.7125,-0.2055 -1.75,-0.45703 0.48124,-0.12576 1.11562,-0.1875 1.75,-0.1875 z m 6,0.008 c 0.45312,0 0.90625,0.0683 1.25,0.20703 0.6875,0.27741 0.125,0.5039 -1.25,0.5039 -1.375,0 -1.9375,-0.22649 -1.25,-0.5039 0.34375,-0.13871 0.79687,-0.20703 1.25,-0.20703 z m 15.41015,1.35351 c 1.25289,-0.0445 2.18444,-0.004 2.44141,0.16016 0.19257,0.12283 0.0539,0.70247 -0.30859,1.28906 -0.80066,1.29551 -12.54297,1.44185 -12.54297,0.15625 0,-0.57839 6.65155,-1.47195 10.41015,-1.60547 z m 39.50782,2.63867 c 0.34739,0.0143 0.64635,0.1073 0.8125,0.27344 0.33229,0.33229 -0.25834,0.56879 -1.3125,0.52539 -1.16495,-0.048 -1.4032,-0.28625 -0.60547,-0.60547 0.36093,-0.14445 0.75807,-0.20766 1.10547,-0.19336 z m -99.93164,1.61133 c -3.29145,0.0607 -5.55483,0.53723 -5.81836,1.30078 -0.18334,0.53118 -0.9447,0.96485 -1.69141,0.96485 -0.7467,0 -1.63273,0.44458 -1.96875,0.98828 -0.35034,0.56686 0.0515,0.73407 0.94141,0.39258 0.87151,-0.33444 1.55078,-0.0688 1.55078,0.60546 0,0.66034 -0.9,1.43695 -2,1.72461 -1.10001,0.28766 -2,0.88467 -2,1.32618 0,0.76986 4.72802,-0.18003 10,-2.00782 1.375,-0.47671 3.66315,-1.1186 5.08398,-1.42578 3.70541,-0.80109 3.34126,-3.55926 -0.5,-3.78711 -1.28954,-0.0765 -2.5005,-0.10225 -3.59765,-0.082 z m 243.98242,3.26563 c 0.5327,0 0.71113,0.675 0.39453,1.5 -0.3166,0.825 -0.75265,1.5 -0.96875,1.5 -0.2162,0 -0.39453,-0.675 -0.39453,-1.5 0,-0.825 0.43605,-1.5 0.96875,-1.5 z m -10.07031,0.94336 c 0.20854,-0.0216 0.4529,0.074 0.70703,0.32812 0.3323,0.33229 0.41519,1.1724 0.18359,1.86719 -0.3387,1.01621 -0.57498,1.01551 -1.20508,-0.004 -0.6255,-1.01212 -0.31117,-2.12656 0.31446,-2.1914 z m -232.68555,7.13085 c -0.38863,-0.0114 -0.96976,0.29017 -1.47852,0.80274 -0.98026,0.98762 -0.86465,1.10127 0.56055,0.55859 0.98622,-0.37553 1.54031,-0.93429 1.23242,-1.24218 -0.077,-0.077 -0.18491,-0.11532 -0.31445,-0.11915 z m 2.85937,1.66407 c -0.25863,0.0292 -0.64367,0.22581 -1.19531,0.57031 -1.32915,0.83007 -1.50121,1.43866 -0.68359,2.42383 1.2882,1.55218 2.12824,0.95478 2.32031,-1.65235 0.0717,-0.97352 -0.0104,-1.39054 -0.44141,-1.34179 z m -4.18945,3.53906 c -0.22851,-0.0592 -0.76406,0.20914 -1.38281,0.72266 -0.82501,0.68469 -1.5,1.67142 -1.5,2.19336 0,0.52194 0.67499,0.27421 1.5,-0.55079 0.825,-0.825 1.5,-1.81172 1.5,-2.19336 0,-0.0954 -0.041,-0.15215 -0.11719,-0.17187 z m 50.23633,18.72266 c 0.55001,0 0.72078,0.45 0.38086,1 -0.33992,0.55 -1.0672,1 -1.61719,1 -0.55001,0 -0.72273,-0.45 -0.38281,-1 0.33992,-0.55 1.06915,-1 1.61914,-1 z m 204.55664,0.92773 c -1.54546,4.03661 -1.53083,8.07422 0.29492,8.07422 0.4141,0 0.54462,1.08376 0.29102,2.41016 -0.343,1.79465 0.21231,2.85276 2.16601,4.13281 1.9381,1.26968 2.46951,2.27436 2.03321,3.83789 -0.43,1.5411 -0.32982,1.74208 0.36718,0.73437 0.4271,-0.6175 0.74921,-0.82283 1.11524,-0.58984 -0.22926,-0.46345 -0.43803,-0.92226 -0.60938,-1.36719 -0.68132,-1.76919 -1.13124,-2.94235 -1.45312,-3.86914 -1.20536,-0.20817 -3.29442,-2.20943 -2.65821,-2.8457 0.0583,-0.0583 0.16508,-0.0778 0.3086,-0.0605 0.30518,0.0366 0.77849,0.23927 1.29492,0.54688 -1.37421,-2.31543 -1.93368,-5.07271 -2.50976,-8.61133 -0.0735,-0.31325 -0.14201,-0.63255 -0.23047,-0.92969 -0.14571,-0.48939 -0.27928,-0.97648 -0.41016,-1.46289 z m -208.67578,3.07227 c 0.54999,0 1,0.675 1,1.5 0,0.825 -0.45001,1.5 -1,1.5 -0.55,0 -1,-0.675 -1,-1.5 0,-0.825 0.45,-1.5 1,-1.5 z m 20.9082,5 c 1.37072,0 1.39766,1.56279 0.0703,4.04297 -0.5626,1.05123 -1.86893,2.3649 -2.90234,2.91796 -1.59135,0.85166 -1.80045,0.70068 -1.36133,-0.97851 0.28516,-1.09046 0.86345,-1.98242 1.28516,-1.98242 0.42171,0 1.00335,-0.9 1.29101,-2 0.28766,-1.1 1.0157,-2 1.61719,-2 z m 16.21485,1 c 1.6426,0 0.88513,4.01375 -1.07422,5.6914 -1.07363,0.91927 -2.98613,1.81531 -4.25,1.99219 -1.73626,0.243 -1.94298,0.0926 -0.84571,-0.61523 0.79874,-0.51525 1.84852,-0.69141 2.33203,-0.39258 0.48352,0.29883 0.7291,-0.33648 0.54688,-1.41211 -0.338,-1.99517 1.7054,-5.26367 3.29102,-5.26367 z m 173.66406,10.16211 c -0.16511,-0.0151 -0.31277,0.0335 -0.43555,0.15625 -0.369,0.36898 0.18748,1.64907 1.23828,2.8457 1.4699,1.67394 1.55081,2.0466 0.34961,1.61133 -1.2599,-0.45655 -1.549,0.23141 -1.5,3.5664 0.0461,3.11075 0.49325,4.21523 1.81055,4.46875 0.9625,0.18525 1.75,0.74032 1.75,1.23243 0,0.4921 1.2375,1.61265 2.75,2.49023 0.29193,0.16935 0.50062,0.30213 0.70312,0.43359 0.0125,-0.73047 0.0273,-1.37492 0.0566,-2.20312 -0.80153,0.16484 -3.50428,-6.70708 -3.54101,-9.13477 -0.0325,-2.16863 -2.02589,-5.36087 -3.18164,-5.46679 z m 5.77734,2.09179 c 0.28375,0.86212 0.10616,1.33273 -0.54687,1.73633 -0.9005,0.55655 -0.79642,1.89636 0.42968,5.50781 0.56194,1.65528 0.94511,3.13878 1.10743,4.12305 0.0435,-1.0721 0.0933,-2.35685 0.10937,-2.74414 0.16922,-3.97027 0.0971,-4.64115 0.0488,-7.05078 -0.40994,-0.5248 -0.79231,-1.04923 -1.14844,-1.57227 z m -267.06445,3.9043 c 1.1,-0.0231 3.79999,0.33011 6,0.78516 l 4,0.82617 -3.5,0.0156 c -1.925,0.008 -4.625,-0.3448 -6,-0.78515 -2.02192,-0.64753 -2.11753,-0.8078 -0.5,-0.8418 z m 42.41797,1.96484 c 0.34739,0.0143 0.64635,0.1073 0.8125,0.27344 0.33229,0.33229 -0.25834,0.56879 -1.3125,0.52539 -1.16495,-0.048 -1.4032,-0.28625 -0.60547,-0.60547 0.36093,-0.14445 0.75807,-0.20766 1.10547,-0.19336 z m 218.38476,5.4668 c -0.65177,-0.0536 -0.97168,0.13595 -0.73828,0.51367 0.3113,0.50363 0.26123,1.87131 -0.10937,3.03906 -0.5297,1.66894 -0.86083,1.82667 -1.54883,0.74024 -1.3035,-2.05799 -1.19099,0.71716 0.1289,3.18359 0.6247,1.16694 0.65859,1.93555 0.084,1.93555 -1.1661,0 -3.03829,8.39647 -3.67969,16.5 -0.2612,3.3 -0.74291,8.025 -1.07031,10.5 -0.3274,2.475 -0.57392,5.2875 -0.54492,6.25 0.0285,0.9625 -0.41759,1.75 -0.99219,1.75 -0.5747,0 -0.76232,0.73813 -0.41602,1.64062 0.9305,2.42491 -0.35171,5.59764 -2.00586,4.9629 -0.77539,-0.29752 -1.41015,-0.15359 -1.41015,0.32031 0,0.47389 0.68689,1.1255 1.52539,1.44726 1.0126,0.38839 1.33288,1.34717 0.95508,2.85547 -0.313,1.24958 -0.64333,3.28594 -0.73633,4.52344 -0.1218,1.62844 -0.79978,2.25 -2.45508,2.25 -2.6438,0 -3.17026,1.98345 -0.53906,2.03125 1.5656,0.0285 1.5393,0.19906 -0.25,1.61523 -1.3856,1.09667 -1.616,1.72617 -0.75,2.05078 0.6875,0.25772 1.24633,1.21811 1.23633,2.13477 -0.0133,1.44325 -0.1473,1.4669 -1,0.16797 -0.8753,-1.33333 -1.0983,-1.33333 -1.9961,0 -0.5553,0.825 -0.77859,2.48371 -0.49609,3.6875 0.8817,3.75724 -0.92281,3.31442 -2.87891,-0.70703 -1.639,-3.36964 -2.09603,-3.69673 -3.74023,-2.66992 -1.0304,0.64349 -1.875,1.56769 -1.875,2.05273 0,0.48505 0.68709,0.31095 1.52539,-0.38476 1.9291,-1.60108 2.09742,-1.3842 2.94922,3.77148 0.6311,3.82007 0.49906,4.25 -1.30274,4.25 -1.1025,0 -2.21375,-0.5625 -2.46875,-1.25 -0.2546,-0.6875 -0.32891,0.775 -0.16601,3.25 0.3819,5.80425 0.3552,5.71973 1.3125,4.21094 0.6098,-0.96124 1.49507,-1.03169 3.48437,-0.27539 3.1615,1.20202 3.47863,2.57753 0.64453,2.79101 -1.2337,0.0929 -1.75635,-0.27383 -1.34375,-0.9414 0.419,-0.67797 0.21093,-0.80815 -0.54687,-0.33985 -0.6729,0.41561 -0.9827,1.38688 -0.6875,2.15625 0.8981,2.34024 -1.24682,1.56083 -2.97852,-1.08203 -1.2919,-1.97172 -2.00075,-2.27937 -3.45703,-1.5 -2.57082,1.37586 -2.84763,1.25089 -2.2539,-1.01953 0.37496,-1.4338 0.0319,-2 -1.21485,-2 -1.34147,0 -1.48607,0.30661 -0.62695,1.3418 0.61257,0.7381 0.88131,1.5757 0.5957,1.86132 -0.28562,0.28562 0.0122,1.81943 0.66211,3.40821 1.6458,4.02342 1.84422,5.38867 0.78516,5.38867 -0.50134,0 -0.91211,-0.43601 -0.91211,-0.96875 0,-0.53273 -0.74675,-0.68254 -1.66016,-0.33203 -1.30487,0.50072 -1.54351,0.18814 -1.11328,-1.45703 0.39458,-1.50888 0.16148,-1.94405 -0.83789,-1.56055 -1.79154,0.68747 -1.74795,1.26114 0.26758,3.48828 1.8319,2.02423 0.47559,2.56153 -1.49414,0.5918 -0.68112,-0.68112 -2.00784,-1.244 -2.94922,-1.25 -1.1267,-0.008 -1.74891,-0.86605 -1.82031,-2.51172 -0.27386,-6.31406 -0.2095,-6.25624 -3.39258,-3 -1.65,1.68793 -3,3.70103 -3,4.47461 0,1.89049 -1.68999,2.83512 -2.55859,1.42969 -0.38347,-0.62046 -0.20791,-1.43087 0.39062,-1.80078 0.6917,-0.42749 0.36537,-1.12407 -0.89648,-1.91211 -1.82134,-1.13744 -1.93279,-1.03257 -1.35157,1.2832 0.39197,1.56173 0.21117,2.52539 -0.47461,2.52539 -0.60963,0 -1.10937,-0.50571 -1.10937,-1.12305 0,-0.77551 -0.46364,-0.73705 -1.5,0.12305 -1.23852,1.02788 -1.5,0.93219 -1.5,-0.54883 0,-0.98654 -0.7675,-2.64347 -1.70703,-3.68164 -0.95784,-1.0584 -1.61004,-3.17893 -1.48438,-4.82812 0.19315,-2.53492 -0.12263,-2.94141 -2.29101,-2.94141 -1.64412,0 -2.51758,-0.55726 -2.51758,-1.60742 0,-1.01758 0.55016,-1.39574 1.5,-1.03125 0.92992,0.35684 1.5,-0.006 1.5,-0.95313 0,-0.84022 -0.43683,-1.25768 -0.9707,-0.92773 -1.01503,0.62732 -2.4815,-3.7146 -2.27344,-6.73047 0.0664,-0.9625 -0.3287,-1.75 -0.87695,-1.75 -0.54828,0 -0.71883,0.45 -0.37891,1 0.33992,0.55 0.17235,1 -0.37305,1 -1.13273,0 -2.58879,-3.87213 -1.76562,-4.69531 0.29903,-0.29903 -0.1385,-1.22639 -0.97266,-2.06055 -1.07219,-1.07219 -1.20355,-1.8277 -0.45117,-2.58008 2.04843,-2.04843 1.21897,-3.74253 -1.49805,-3.06054 -2.05767,0.51643 -2.66946,0.22843 -3.11328,-1.46876 -0.30384,-1.1619 -0.91429,-1.8891 -1.35742,-1.61523 -0.44313,0.27387 -1.48636,-0.18166 -2.31641,-1.01172 -1.95541,-1.95536 -4.03358,-1.9449 -3.28125,0.0156 0.47685,1.24266 0.22077,1.32827 -1.39258,0.46484 -2.25706,-1.20795 -2.55464,-2.57628 -0.72851,-3.35547 0.6875,-0.29338 -0.2125,-0.32372 -2,-0.0684 -1.7875,0.25536 -3.25,0.0556 -3.25,-0.44336 0,-0.499 -0.62397,-1.14676 -1.38672,-1.43945 -1.00426,-0.38538 -1.23311,0.0545 -0.83008,1.5957 0.43805,1.67512 -0.24577,1.32649 -3.21289,-1.64062 -2.07335,-2.07335 -3.94174,-3.59732 -4.15234,-3.38672 -0.21059,0.21059 0.0198,1.78487 0.51172,3.5 0.72359,2.52296 0.62355,3.01511 -0.52539,2.57422 -0.78105,-0.29971 -1.69061,-1.61721 -2.01954,-2.92774 -0.32892,-1.31053 -0.9731,-2.15057 -1.43164,-1.86718 -1.08101,0.6681 -5.04398,-3.57169 -4.36523,-4.66993 0.28454,-0.46041 -0.15382,-0.57983 -0.97266,-0.26562 -0.81884,0.31422 -1.24247,1.2088 -0.94336,1.98828 0.29912,0.77948 0.093,1.41797 -0.45703,1.41797 -0.55,0 -1.25958,-0.675 -1.57617,-1.5 -0.81009,-2.11108 -2.6933,-1.8793 -2.03125,0.25 0.46484,1.49503 0.37018,1.47644 -0.64844,-0.12109 -0.7448,-1.16809 -1.43883,-1.46935 -1.84961,-0.80469 -0.4305,0.69656 -1.77127,0.35841 -3.88281,-0.97852 -3.44355,-2.1803 -4.38041,-4.18978 -1.47656,-3.16797 1.21899,0.42894 1.44657,0.29035 0.75,-0.45898 -1.41959,-1.52713 -3.24936,-1.89444 -3.58203,-0.71875 -0.83386,2.94685 -15.25121,9.38655 -16.49805,7.36914 -0.3009,-0.48689 -1.37147,-0.43104 -2.41406,0.12695 -2.39915,1.28398 -3.29174,1.2766 -2.48828,-0.0234 0.40472,-0.65485 -0.43902,-0.83868 -2.32813,-0.50586 -2.36497,0.41665 -3.28788,0.0293 -4.5625,-1.91602 -1.57567,-2.40478 -1.66218,-2.41703 -6.11328,-0.90039 -4.38301,1.49344 -6.05316,3.34961 -3.01367,3.34961 1.71862,0 2.03156,2.55341 0.43359,3.54102 -0.58701,0.3628 -1.31264,-0.27577 -1.61133,-1.41797 -0.45371,-1.735 -0.87323,-1.89884 -2.55273,-1 -1.45351,0.77788 -1.82152,0.77173 -1.33008,-0.0234 0.37383,-0.60487 0.23707,-1.09961 -0.30273,-1.09961 -0.53981,0 -1.5206,1.6875 -2.17969,3.75 -1.2723,3.98136 -2.95703,6.51575 -2.95703,4.44922 0,-2.977 -2.07989,-0.76436 -3.10352,3.30078 -0.6232,2.475 -1.47231,4.5 -1.88672,4.5 -0.41442,0 -1.11572,1.9125 -1.55859,4.25 -0.70379,3.71456 -0.85389,3.90077 -1.19531,1.48242 -0.4339,-3.07348 -2.25586,-2.76279 -2.25586,0.38477 0,1.15244 -0.44866,1.72267 -1.05859,1.3457 -0.60722,-0.37529 -0.78591,-1.89228 -0.41993,-3.55859 0.4941,-2.24961 0.2818,-2.9043 -0.9414,-2.9043 -0.86872,0 -1.58008,0.6605 -1.58008,1.46875 0,1.03953 -1.02907,1.43149 -3.51953,1.33789 -2.41821,-0.0909 -3.96292,0.46548 -4.93164,1.7793 -1.36233,1.84765 -1.44475,1.8289 -2.41602,-0.58594 -0.55305,-1.375 -1.03346,-1.9375 -1.06836,-1.25 -0.0349,0.6875 -0.96445,1.25 -2.06445,1.25 -1.20001,0 -2,0.66602 -2,1.66602 0,0.91664 -0.29228,1.37374 -0.65039,1.01562 -0.35812,-0.35812 -1.18921,0.0858 -1.84766,0.98633 -1.3194,1.80439 -3.50195,1.04043 -3.50195,-1.22656 0,-1.7728 -1.56069,-1.874 -2.95899,-0.19141 -2.61032,3.14103 -8.04101,12.08004 -8.04101,13.23633 0,0.70686 -0.67058,2.57312 -1.49219,4.14843 -1.00254,1.92229 -1.496,2.28969 -1.5,1.11524 -0.003,-0.9625 -0.41555,-1.75 -0.91406,-1.75 -0.49852,0 -0.65422,0.95834 -0.34766,2.13086 0.3882,1.48447 -0.14195,2.65865 -1.74414,3.86719 -2.35799,1.77863 -6.00195,1.60348 -6.00195,-0.28907 0,-0.58172 -1.05716,-0.0638 -2.34961,1.15039 -2.05073,1.92656 -2.50714,2.01667 -3.58594,0.7168 -0.6799,-0.81923 -0.9143,-2.00894 -0.52148,-2.64453 0.39281,-0.63558 0.0989,-1.53647 -0.6543,-2.00195 -0.75316,-0.46547 -1.41806,-1.42814 -1.47656,-2.13867 -0.44745,-5.4313 -0.42814,-5.40768 -2.0293,-2.45313 -2.02061,3.72854 -2.58343,2.97808 -1.28711,-1.7168 0.83754,-3.03333 0.7298,-4.24091 -0.55078,-6.19531 -0.87462,-1.33484 -2.03878,-2.42578 -2.58789,-2.42578 -0.54911,0 -1.52007,-1.14281 -2.15625,-2.53906 -0.63617,-1.39625 -1.683,-2.33545 -2.32813,-2.08789 -0.49639,0.19049 -0.81127,-0.64297 -0.9414,-1.86329 -2.08524,4.61257 -3.757,8.29113 -4.7168,10.39063 0.0438,0.0424 0.0914,0.0866 0.13477,0.12891 1.25581,-2.47462 2.87612,-5.60361 4.82422,-9.01172 0.11369,-0.1989 0.10201,0.44943 0.12109,0.67773 0.19071,2.28096 0.22445,4.58826 0.28906,6.875 0.0532,2.64744 0.036,5.16349 -0.16601,7.59766 1.3369,2.20701 2.17026,4.47538 2.59961,7.02148 0.71084,1.22573 1.37035,2.48067 1.9707,3.76172 0.008,0.009 0.0134,0.0149 0.0215,0.0234 1.57619,1.48093 3.1357,2.97331 4.17774,4.83984 3.04809,5.45986 3.82003,8.39905 3.9414,11.91016 0.37392,0.86926 0.71873,1.74847 0.97266,2.66015 0.0437,0.15698 0.0692,0.31385 0.10938,0.47071 0.17796,0.21281 0.43359,0.49511 0.51953,0.62305 1.75161,2.60779 3.17046,5.42465 4.75586,8.13671 0.39876,1.65091 0.56247,2.38011 0.875,3.69532 0.12952,0.17629 0.29923,0.43195 0.40625,0.56445 0.54242,1.39261 1.3438,3.15341 2.13672,5.06055 1.93793,0.80429 3.64935,1.88554 4.85351,3.11718 1.57503,1.61098 3.16818,2.74019 3.54102,2.50977 0.37284,-0.23043 1.22113,0.78694 1.88476,2.25976 1.99126,4.41932 11.61128,9.53708 11.14258,5.92774 -0.34173,-2.63157 0.12748,-3.75 1.57422,-3.75 0.825,0 1.5,0.52435 1.5,1.16602 0,1.74687 1.00758,0.39912 1.46094,-1.95508 0.21803,-1.13213 1.08502,-3.32997 1.92773,-4.88477 1.13148,-2.08759 1.54267,-2.3526 1.57227,-1.01172 0.022,0.99866 -0.42494,2.68423 -0.99219,3.74414 -0.94933,1.77385 -0.83209,1.83633 1.4707,0.78711 1.81185,-0.8255 2.86565,-0.83951 3.81836,-0.0488 0.72352,0.60046 2.98651,0.93595 5.0293,0.7461 2.0899,-0.19424 3.71289,0.10214 3.71289,0.67773 0,0.57276 0.70135,0.44214 1.5918,-0.29687 1.45373,-1.20649 1.45373,-1.41942 0,-2.48242 -0.87466,-0.63957 -1.5918,-1.67588 -1.5918,-2.30274 0,-0.62687 -0.47615,-1.13867 -1.05859,-1.13867 -0.58245,0 -0.73816,0.51932 -0.34571,1.1543 0.44563,0.72104 0.27419,0.8816 -0.45703,0.42968 -0.64392,-0.39798 -0.9439,-1.09133 -0.66602,-1.54101 0.27792,-0.44968 -0.11673,-1.33426 -0.8789,-1.9668 -0.79155,-0.65695 -1.14658,-2.06346 -0.82813,-3.28125 0.44901,-1.71702 0.21735,-2.00198 -1.1875,-1.46289 -1.15996,0.44512 -1.60244,0.24967 -1.32226,-0.58203 0.23173,-0.68787 -0.13618,-1.7 -0.81641,-2.25 -0.68024,-0.55 -1.53578,-2.125 -1.90234,-3.5 -0.42006,-1.57564 -0.33773,-2.02927 0.22265,-1.22656 0.69046,0.98906 1.27846,0.844 2.63086,-0.65039 1.21492,-1.34247 1.39789,-2.13572 0.60938,-2.62305 -0.79512,-0.49141 -0.64612,-1.23355 0.5,-2.5 1.16612,-1.28855 1.25501,-1.75745 0.31445,-1.65039 -0.72275,0.0823 -1.31445,-0.29061 -1.31445,-0.83008 0,-0.53946 0.45,-1.01659 1,-1.05859 3.55837,-0.27152 4.62462,-1.7695 3.97851,-5.59375 -0.36397,-2.15435 -0.24724,-3.86719 0.26368,-3.86719 0.50452,0 0.88159,-0.9894 0.83789,-2.19922 -0.0469,-1.29787 0.79979,-2.64628 2.06445,-3.28906 1.17884,-0.59916 2.75384,-1.58041 3.5,-2.17969 0.74615,-0.59928 3.49297,-1.11312 6.10547,-1.14062 2.61249,-0.0275 5.08749,-0.15038 5.5,-0.27344 0.4125,-0.12305 1.2,-0.3273 1.75,-0.45508 0.54999,-0.12779 1.225,-0.32163 1.5,-0.42969 0.27499,-0.10806 2.75,-0.32875 5.5,-0.49023 5.30916,-0.31176 7.46329,-0.88133 11.53711,-3.05274 1.43656,-0.76571 5.77344,-1.38067 10,-1.41797 15.45252,-0.13634 23.96289,0.17294 23.96289,0.8711 0,1.15593 3.68851,0.56033 5.41797,-0.875 0.8709,-0.72279 1.58203,-1.06567 1.58203,-0.76172 0,0.55103 3.78227,-0.40426 7.41406,-1.87305 1.34651,-0.54456 1.70007,-0.42655 1.19141,0.39649 -0.43395,0.70216 -0.0997,1.16992 0.83594,1.16992 1.0732,0 1.55859,0.9549 1.55859,3.06641 0,2.5802 0.30833,2.97082 1.93945,2.45312 1.36741,-0.434 2.28573,0.0321 3.11524,1.58203 1.60628,3.00135 1.52002,11.92473 -0.125,12.94141 -1.05448,0.6517 -1.06005,1.09398 -0.0293,2.33594 0.69946,0.84283 1.00771,1.96186 0.68359,2.48632 -1.30121,2.1054 0.6728,4.13477 4.02344,4.13477 1.86614,0 3.39258,0.47649 3.39258,1.05859 0,0.58246 0.45,0.78133 1,0.44141 0.55,-0.33992 1,-0.16914 1,0.38086 0,1.77451 -1.99426,2.29479 -2.61328,0.68164 -0.77801,-2.0271 -3.38672,-2.03037 -3.38672,-0.004 0,0.85748 0.45,1.28133 1,0.94141 0.55,-0.33992 1,-0.0143 1,0.72461 0,0.73887 1.35788,2.14654 3.01758,3.12695 1.67542,0.98969 2.7198,2.26505 2.34765,2.86719 -0.43896,0.71026 -1.10237,0.49379 -1.92187,-0.62695 -0.68825,-0.94123 -1.5152,-1.2831 -1.83985,-0.75782 -0.32464,0.52529 0.0805,1.21393 0.90235,1.5293 2.29932,0.88233 1.79261,2.0162 -1.56836,3.50391 -1.91912,0.84948 -2.86483,1.87484 -2.53125,2.74414 0.3442,0.89696 -0.17049,1.38867 -1.45508,1.38867 -1.64329,0 -1.87567,0.45101 -1.33398,2.60937 0.5831,2.32327 0.42059,2.53697 -1.48047,1.9336 -1.36454,-0.43309 -2.13672,-0.24832 -2.13672,0.51172 0,0.88456 -0.39107,0.86457 -1.5293,-0.0801 -1.30003,-1.07892 -1.71165,-0.79633 -2.7207,1.87695 -0.65356,1.73147 -1.56547,3.14844 -2.02735,3.14844 -0.46186,0 -0.53265,-0.4985 -0.15624,-1.10742 0.46035,-0.74486 -0.0915,-0.91203 -1.68946,-0.50977 -1.30638,0.32884 -1.81445,0.33919 -1.12695,0.0234 1.70917,-0.78499 1.57115,-2.07074 -0.30078,-2.78906 -0.88988,-0.34149 -1.29174,-0.17233 -0.94141,0.39453 0.85988,1.39132 -0.8617,1.23205 -2.30664,-0.21289 -1.71729,-1.7173 -1.48166,-0.15691 0.41406,2.73633 1.07218,1.63638 1.22085,2.46484 0.44141,2.46484 -0.64568,0 -0.89656,0.45 -0.55664,1 0.94825,1.53431 -0.16743,1.18805 -1.96485,-0.60938 -1.4791,-1.47909 -1.76893,-1.42691 -3.57226,0.65235 -1.07916,1.24428 -1.96289,2.64353 -1.96289,3.10937 0,0.46584 -0.50002,0.84766 -1.11328,0.84766 -0.67722,0 -0.4651,-0.9937 0.54101,-2.5293 1.77991,-2.71649 1.36955,-4.4707 -1.04492,-4.4707 -0.82497,0 -1.22273,0.45 -0.88281,1 0.33992,0.55 0.14301,1 -0.43945,1 -0.58246,0 -1.06055,-0.40338 -1.06055,-0.89453 0,-1.68714 -2.9417,-2.01923 -4.45703,-0.50391 -0.83405,0.83406 -2.75993,1.61576 -4.2793,1.73828 -2.27271,0.18326 -2.70428,0.63585 -2.43164,2.55078 0.1935,1.35914 -0.0825,2.07037 -0.66406,1.71094 -0.54778,-0.33855 -1.25537,-0.0483 -1.57227,0.64258 -0.31688,0.69093 -0.32457,0.24336 -0.0176,-0.99414 0.40032,-1.61373 0.11439,-2.25 -1.00976,-2.25 -0.86207,0 -1.56836,-0.47809 -1.56836,-1.06055 0,-0.58246 -0.4213,-0.79754 -0.9375,-0.47851 -0.5162,0.31902 -1.35082,-0.15445 -1.85352,-1.05274 -0.73978,-1.3219 -1.03504,-1.02401 -1.55273,1.56446 -0.75538,3.77687 -3.00594,3.62875 -3.46484,-0.22852 l -0.3086,-2.60156 -2.79883,2.92773 c -3.14987,3.29604 -4.58881,3.63574 -5.84961,1.38281 -0.53797,-0.96129 -2.45596,-1.60848 -5.07422,-1.71289 -2.97406,-0.1186 -4.06361,-0.54619 -3.71484,-1.45507 0.63308,-1.64973 -0.5522,-1.62998 -3.81445,0.0625 -1.42954,0.74165 -2.29418,1.65503 -1.91992,2.02929 0.37427,0.37426 0.7744,1.23077 0.88867,1.90235 0.11427,0.67158 0.51154,1.97492 0.88281,2.89648 0.84419,2.0954 -1.98449,4.00045 -9.48242,6.38672 -10.28413,3.27299 -10.88682,3.56822 -10.31641,5.05469 0.39588,1.03163 1.4771,1.2549 3.87696,0.80468 3.9533,-0.74164 14.6047,2.52016 19.84765,6.07813 1.9157,1.30002 4.96936,2.50704 6.78711,2.68164 2.65585,0.25511 3.32808,0.77254 3.42188,2.63477 0.0642,1.27457 1.28856,3.25954 2.7207,4.41211 l 2.60352,2.0957 -2.72071,2.52734 c -0.35201,0.3269 -0.74509,0.64186 -1.14844,0.93946 1.49643,0.55365 2.57012,0.93884 3.16211,1.21289 1.17225,0.33171 2.3378,0.68354 3.5,1.04687 -0.7026,-0.36476 -1.40308,-0.73528 -2.11132,-1.08789 6.63666,2.22907 6.44354,1.47662 9.8457,2.97266 3.33587,-0.14898 8.70502,-0.12819 9.69531,-0.10157 3.76803,0.106 7.53973,0.0284 11.30859,0.0195 1.14785,0.002 2.29559,7.8e-4 3.44336,0.002 1.1898,-0.88245 1.00325,-0.64895 2.45118,-1.03516 0.49725,-3.63225 0.0114,-1.62999 12.40625,-11.80859 1.1077,-0.39249 2.16681,-0.97431 3.32421,-1.17774 1.5111,-0.26558 3.03328,-0.44928 4.5586,-0.61914 0.3512,-0.30377 0.55011,-0.46729 0.93555,-0.80273 -0.17992,0.25666 -0.38009,0.50938 -0.58789,0.76172 0.65624,-0.0718 1.3121,-0.14749 1.96874,-0.2168 0.34065,-0.10622 0.67927,-0.21753 1.02344,-0.31055 1.21285,-0.32777 5.0022,-0.45609 3.75977,-0.26953 -1.58798,0.23845 -3.18529,0.41143 -4.78321,0.58008 -0.87871,0.27402 -1.74613,0.58655 -2.5996,0.93555 -3.5838,3.88391 -9.64958,7.3833 -8.59375,11.98633 3.1629,-0.55347 6.21412,-0.57424 9.30273,-0.41016 0.89679,-0.4102 1.74904,-0.77772 2.33203,-1.03516 1.44863,-0.63967 2.97768,-1.05565 4.51953,-1.4375 0.081,-5.83295 1.53696,-10.97308 5.61914,-14.46679 -0.0441,-0.28798 -0.10435,-0.58687 -0.14258,-0.8711 -0.0188,-0.14002 -0.1633,-0.19894 -0.35742,-0.22265 -0.16465,0.0669 -0.32693,0.13956 -0.49218,0.20507 -9.52968,3.77779 -1.32685,-0.4273 0.49218,-0.20507 2.58134,-1.04948 5.09481,-2.25978 7.64453,-3.38477 4.07042,-1.79595 7.93754,-3.02591 11.57032,-3.77539 1.35516,-0.98612 2.8073,-1.82471 4.28125,-2.63086 0.41856,-0.36209 0.84577,-0.73649 1.27929,-1.08984 -0.40522,0.34489 -0.80344,0.69791 -1.20507,1.04687 2.49814,-1.36309 5.06442,-2.62492 7.40625,-4.23242 1.39988,-0.96092 -3.22725,1.14053 -4.66797,2.03906 -0.39203,0.24449 -0.9407,0.66371 -1.52149,1.13672 1.40414,-1.1949 2.81867,-2.38058 4.21875,-3.58008 1.34815,-0.85484 3.76564,-2.88368 5.76758,-4.2539 0.47816,-0.54735 0.96033,-1.0927 1.44336,-1.63672 -1.64454,1.40524 -1.67735,1.43038 0.12891,-0.16406 0.76521,-1.09435 1.65182,-2.11959 2.63671,-3.04493 0.15488,-0.18796 0.31465,-0.37267 0.4668,-0.5625 0.28061,-0.18492 0.38998,-0.25402 0.64844,-0.42382 0.39761,-1.60811 3.51412,-3.85609 4.37695,-3.9336 1.45236,-1.43562 2.92081,-2.85673 4.35157,-4.3125 0.63552,-0.20586 1.2752,-0.39912 1.91406,-0.5957 0.82591,-1.98311 2.71098,-4.1682 3.64453,-2.91016 0.10735,0.14467 0.16382,0.28803 0.19922,0.43164 0.50127,-0.55259 1.01105,-1.09709 1.51758,-1.64453 -0.0436,-0.0106 -0.0872,-0.0147 -0.13086,-0.0273 -1.48501,-0.42908 0.0761,-1.8137 1.94531,-3.17188 1.51147,-5.54527 4.22513,-9.80752 7.60937,-12.70117 0.39542,-2.46567 0.031,-4.6932 -0.043,-7.3418 -0.2518,-7.17487 0.93549,-9.0139 4.25196,-15.09765 -0.0303,-0.3251 -0.0582,-0.64301 -0.0781,-0.89844 -0.57851,0.8299 -0.91773,1.28389 -0.40429,0.4043 0.12371,-0.21193 0.25849,-0.41662 0.38476,-0.62696 -0.0779,-1.06131 -0.11517,-1.96621 -0.19922,-4.04882 0.59285,-1.69433 -0.45619,-9.05149 0.13868,-10.55469 0.74836,-1.89107 1.5452,-3.76245 2.35742,-5.62695 -0.21383,-1.36125 -0.38174,-4.43777 -0.44532,-5.37891 -0.0624,-4.38844 0.13669,-8.77103 0.10157,-13.16016 l 2.39257,-5.50781 c -0.13434,-0.73763 -0.1658,-1.49102 -0.24804,-2.23633 2.88005,-9.16887 3.01824,-12.45365 3.85547,-14.86719 -0.25859,-3.53431 -0.0228,-7.11552 0.0879,-10.64648 -0.18995,-5.55182 0.49354,-8.11344 2.28711,-11.875 -0.0367,-0.39231 -0.0572,-0.77102 -0.0566,-1.12695 -0.15858,-0.43203 -0.32863,-0.85985 -0.46485,-1.29883 -0.0541,-0.1744 -0.0619,-0.86396 -0.0527,-1.72461 -1.09896,-0.38213 -2.69219,-0.72197 -3.57813,-0.75977 -0.9,-0.0384 -1.43696,-0.58974 -1.19336,-1.2246 0.2437,-0.63488 -0.48333,-1.39542 -1.61523,-1.69141 -0.28295,-0.074 -0.53665,-0.11884 -0.75391,-0.13672 z m 7.65821,6.83594 c 0.0858,0.23371 0.15865,0.47116 0.25,0.70312 0.89427,-1.83553 2.11968,-4.18123 3.57031,-7.11914 4.1e-4,-0.0925 0.002,-0.18487 0.002,-0.27734 -0.79036,1.13995 -1.58802,2.2757 -2.36523,3.42383 -1.04321,0.42003 -1.45465,1.63466 -1.45703,3.26953 z m 0.25,0.70312 c -0.0727,0.14914 -0.12411,0.2786 -0.19336,0.42383 0.33483,3.58087 2.12801,8.51397 3.73047,11.92383 5.5e-4,-1.59167 -0.002,-3.18373 -0.004,-4.77539 -1.18495,-2.51657 -2.51819,-4.99466 -3.5332,-7.57227 z m -43.8125,140.78321 c -0.0181,0.0258 -0.0348,0.0522 -0.0527,0.0781 0.0432,-0.0487 0.0857,-0.0978 0.12891,-0.14648 -0.0247,0.0218 -0.0524,0.0473 -0.0762,0.0684 z m -12.77539,10.6914 c -0.0251,0.0137 -0.0491,0.0293 -0.0742,0.043 -1.27718,1.10484 -2.27339,2.02622 -1.49414,1.32031 0.51336,-0.46504 1.04551,-0.90901 1.56836,-1.36328 z m -94.38868,27.40235 c -1.16335,-0.3292 -2.3265,-0.66047 -3.49023,-0.98829 -0.0641,0.0447 -0.12887,0.0816 -0.19336,0.125 1.97132,0.9345 3.94866,1.85863 5.91016,2.8125 -1.02846,-1.1698 -1.36059,-1.54834 -2.22657,-1.94921 z m -101.625,-91.0293 c -0.006,-0.006 -0.0131,-0.0116 -0.0195,-0.0176 0.15622,0.33346 0.30478,0.66922 0.45313,1.00586 0.41322,0.34376 0.8681,0.7228 1.00586,0.82031 0.70778,0.50103 -0.27904,-0.59142 -1.43946,-1.80859 z m -0.0195,-0.0176 c -8.6e-4,-0.002 -10e-4,-0.004 -0.002,-0.006 -0.63199,-0.66234 -1.17028,-1.21328 -1.72266,-1.76367 0.003,0.0398 0.005,0.0812 0.008,0.12109 0.55964,0.55907 1.13732,1.10408 1.71679,1.64844 z m 138.78122,-82.55873 c -0.16095,-0.0397 -0.25801,0.40996 -0.29101,1.34961 -0.053,1.51164 0.4942,2.24467 1.66992,2.23437 1.07943,-0.009 1.32893,-0.29683 0.65039,-0.75 -0.60504,-0.40408 -1.35587,-1.40937 -1.66992,-2.23437 -0.14308,-0.37586 -0.2628,-0.57582 -0.35938,-0.59961 z m -9.87109,17.59961 c -0.82501,0 -1.5,0.43601 -1.5,0.96875 0,0.53273 0.67499,0.70915 1.5,0.39257 0.825,-0.31659 1.5,-0.75259 1.5,-0.96875 0,-0.21615 -0.675,-0.39257 -1.5,-0.39257 z m -45.76953,2 c -2.72721,0 -7.26692,4.54924 -5.58008,5.59179 0.59078,0.36511 1.36189,0.27007 1.71289,-0.21289 0.68434,-0.9416 9.03567,-1.33893 8.95117,-0.42578 -0.0278,0.30049 0.003,0.88438 0.0684,1.29688 0.32234,2.04147 3.11719,-0.47511 3.11719,-2.80664 0,-0.90834 -6.08829,-3.44336 -8.26953,-3.44336 z m 167.88672,4.625 c -1.18666,1.60759 -2.41324,3.18817 -3.28125,4.97851 -0.78778,1.62486 -0.781,3.5262 -1.18946,5.28516 -0.004,0.0169 -0.0119,0.0496 -0.0176,0.0742 l 4.48828,-10.33789 z m -169.61719,7.375 c -0.55,0 -1,0.45 -1,1 0,0.55 0.45,1 1,1 0.54999,0 1,-0.45 1,-1 0,-0.55 -0.45001,-1 -1,-1 z m 57.38476,2.32617 c 0.27211,-0.0721 0.67596,0.38823 0.96094,1.13086 0.67618,1.76211 0.0993,2.07202 -0.88672,0.47656 -0.36253,-0.58659 -0.44377,-1.28084 -0.18164,-1.54297 0.0328,-0.0328 0.0686,-0.0542 0.10742,-0.0645 z m -50.99609,2.03711 c 0.35616,-0.0222 0.60366,0.28815 0.59766,0.82812 -0.008,0.71996 -0.45318,1.9836 -0.98633,2.8086 -0.78809,1.21948 -0.97198,1.08982 -0.98438,-0.69141 -0.008,-1.20504 0.43438,-2.46867 0.98438,-2.80859 0.1375,-0.085 0.26995,-0.12932 0.38867,-0.13672 z m 55.04102,7.43359 c 0.0776,-0.0419 0.16859,0.10779 0.26367,0.47266 0.25349,0.97297 0.23681,2.32297 -0.0371,3 -0.27393,0.67703 -0.48134,-0.11953 -0.46094,-1.76953 0.0127,-1.03125 0.10503,-1.63336 0.23438,-1.70313 z m -81.36914,1.20313 c -0.58247,0 -1.06055,0.45 -1.06055,1 0,0.55 0.19884,1 0.44141,1 0.24252,0 0.71867,-0.45 1.05859,-1 0.33992,-0.55 0.14301,-1 -0.43945,-1 z m -65.70508,2.17187 c 0.0276,0.55684 0.0565,1.29084 0.0684,1.94531 0.27756,-0.47744 0.23162,-1.23286 -0.0684,-1.94531 z m 253.45703,1.19922 c -1.10843,1.46552 -2.53378,3.49832 -3.51953,5.54297 -0.71654,1.48625 -0.77261,3.2008 -1.0918,4.82617 1.51722,-3.46469 3.08785,-6.90706 4.61133,-10.36914 z m -158.39258,2.96484 c 0.26615,0.13968 0.69596,1.46471 1.02539,3.22071 0.37648,2.00684 0.48469,3.84735 0.24024,4.09179 -0.24445,0.24445 -0.75243,-1.19627 -1.12891,-3.20312 -0.37649,-2.00684 -0.48469,-3.84931 -0.24023,-4.09375 0.0306,-0.0306 0.0655,-0.0356 0.10351,-0.0156 z m 130.19336,0.0469 c -0.35859,0.0159 -0.61328,0.4155 -0.61328,1.05859 0,0.85746 0.45,1.5586 1,1.5586 0.55,0 1,-0.42387 1,-0.94141 0,-0.51754 -0.45,-1.21867 -1,-1.55859 -0.1375,-0.085 -0.26719,-0.12249 -0.38672,-0.11719 z m -178.64063,2.66211 c -0.13994,-0.0643 -0.54253,0.22405 -1.28515,0.82812 -0.92799,0.75485 -1.6875,1.99235 -1.6875,2.75 0,0.75766 0.45,1.37696 1,1.37696 0.54999,0 1,-0.41296 1,-0.91797 0,-0.50502 0.30952,-1.74252 0.6875,-2.75 0.30248,-0.80626 0.42513,-1.22282 0.28515,-1.28711 z m 178.0879,0.95508 c -0.5825,0 -1.06055,0.45 -1.06055,1 0,0.55 0.19891,1 0.44141,1 0.2426,0 0.71869,-0.45 1.05859,-1 0.3399,-0.55 0.14305,-1 -0.43945,-1 z m -173.28516,4.04492 c 0.12863,0.0135 0.22461,0.74636 0.22461,1.78906 0,1.33194 -0.62374,2.16602 -1.62109,2.16602 -1.3888,0 -1.42979,-0.25202 -0.28321,-1.75 0.73671,-0.9625 1.46742,-1.93685 1.62305,-2.16602 0.0195,-0.0286 0.0383,-0.041 0.0566,-0.0391 z m 169.50976,1.07617 c -0.22919,-0.0144 -0.28515,0.30965 -0.28515,0.96484 0,0.83286 0.55758,2.07134 1.23828,2.75196 0.8937,0.89371 1.34183,0.92176 1.61523,0.10156 0.2083,-0.62465 -0.34742,-1.86311 -1.23632,-2.75195 -0.69922,-0.69924 -1.10282,-1.05197 -1.33204,-1.06641 z m 14.63282,0.002 c 0.3474,0.0143 0.6464,0.1073 0.8125,0.27344 0.3323,0.33229 -0.2583,0.56879 -1.3125,0.52539 -1.1649,-0.048 -1.40327,-0.28625 -0.60547,-0.60547 0.3609,-0.14445 0.75807,-0.20766 1.10547,-0.19336 z m -52.55274,0.22266 c 0.091,0.0138 0.19865,0.16765 0.31836,0.4668 0.28891,0.72187 0.25417,1.58372 -0.0781,1.91601 -0.33228,0.33229 -0.56879,-0.25834 -0.52539,-1.3125 0.03,-0.72809 0.13358,-1.09326 0.28515,-1.07031 z m -140.71679,1.04883 c 0.1241,-0.0748 0.16984,0.30157 0.18164,1.10547 0.0162,1.1 -0.3574,2.9 -0.83008,4 -1.09501,2.54822 -1.09501,-0.0808 0,-3.5 0.32181,-1.00487 0.52433,-1.53071 0.64844,-1.60547 z m 174.57226,0.66211 c -0.0625,0.0624 0.24841,0.59528 0.88086,1.64843 0.72815,1.21249 1.53967,1.98965 1.80274,1.72657 0.26309,-0.26308 -0.33299,-1.25567 -1.32422,-2.20508 -0.86097,-0.82465 -1.29692,-1.23238 -1.35938,-1.16992 z m 22.16406,0.26953 c 0.27211,-0.0721 0.67604,0.38823 0.96094,1.13086 0.6762,1.76211 0.0994,2.07202 -0.88672,0.47656 -0.3625,-0.58659 -0.44374,-1.28084 -0.18164,-1.54297 0.0328,-0.0328 0.0686,-0.0542 0.10742,-0.0645 z m -127.84765,0.0176 c 0.35584,-0.0498 0.47089,0.35449 0.47851,1.2832 0.0119,1.45414 0.2108,1.56634 0.88868,0.49609 0.48009,-0.75798 1.37287,-1.06932 1.98437,-0.6914 1.88001,1.16192 1.25463,2.11473 -2.20898,3.36718 -1.82655,0.66049 -3.58429,1.20118 -3.90625,1.20118 -1.01772,0 0.38353,-3.88446 1.83593,-5.08985 0.41423,-0.34378 0.71423,-0.5365 0.92774,-0.5664 z m -104.46094,3.65625 c 0.47389,0 0.60369,0.675 0.28711,1.5 -0.3166,0.825 -0.96362,1.5 -1.4375,1.5 -0.4739,0 -0.6037,-0.675 -0.28711,-1.5 0.31659,-0.825 0.96361,-1.5 1.4375,-1.5 z m -13.27539,2.15234 c -0.28078,0.62272 -0.39797,0.94546 0.0449,0.0606 -0.0152,-0.0201 -0.0297,-0.0405 -0.0449,-0.0606 z m 239.52344,1.05273 c 0.20612,0.0261 0.50057,0.21935 0.85937,0.57813 0.6507,0.65084 0.95207,1.41701 0.66797,1.70117 -0.6674,0.66739 -1.85156,-0.51678 -1.85156,-1.85156 0,-0.3133 0.11809,-0.45387 0.32422,-0.42774 z m 19.57422,0.83399 c -2.88486,3.4001 -3.25687,3.47268 -4.29493,6.38672 0.51655,-0.78221 1.03283,-1.56456 1.56055,-2.33985 0.11403,-0.23079 0.20533,-0.39709 0.32227,-0.63672 0.0932,-0.19089 0.3587,-0.48802 0.59765,-0.7246 0.60811,-0.893 1.22185,-1.78295 1.81446,-2.68555 z m -30.51953,0.34961 c -0.12149,-0.004 -0.25481,0.0347 -0.39454,0.12109 -0.559,0.34546 -0.75785,1.0466 -0.4414,1.5586 0.8572,1.38704 1.45703,1.12957 1.45703,-0.62696 0,-0.64312 -0.25668,-1.04047 -0.62109,-1.05273 z m -9.49219,1.11133 0.60742,2.87695 c 0.4841,2.29083 0.30389,2.75916 -0.89063,2.30078 -1.0194,-0.39117 -1.32324,-0.11179 -0.94531,0.87305 0.68546,1.78629 1.12672,1.80883 2.79883,0.13672 1.08473,-1.08473 1.06192,-1.73798 -0.12891,-3.75 l -1.4414,-2.4375 z m 36.40429,4.30859 c -0.36508,0.55546 -0.62961,0.96969 -0.99023,1.51172 -0.11402,0.33303 -0.26157,0.77166 -0.39648,1.17578 0.42926,-0.80579 0.89875,-1.73038 1.38671,-2.6875 z m -19.29101,2.19141 c 0.0516,-0.0516 0.45695,0.25111 1.25,0.87304 0.9625,0.75485 1.75,1.54235 1.75,1.75 0,0.82304 -0.82055,0.29271 -2.12695,-1.37304 -0.62195,-0.79303 -0.92468,-1.19839 -0.87305,-1.25 z m -39.71094,0.46875 c 0.40837,0.0292 0.83964,0.42073 1.07617,1.03711 0.3483,0.90766 -0.004,1.49414 -0.89648,1.49414 -1.61739,0 -1.9842,-1.56293 -0.57227,-2.43555 0.12309,-0.0761 0.25646,-0.10545 0.39258,-0.0957 z m 19.65235,0.53125 c -0.58246,0 -0.78133,0.45 -0.44141,1 0.33992,0.55 0.81801,1 1.06055,1 0.24254,0 0.43945,-0.45 0.43945,-1 0,-0.55 -0.47615,-1 -1.05859,-1 z m 17.55859,0.5 2.25,1.90429 c 1.2375,1.04774 2.25,2.06024 2.25,2.25 0,0.80025 -0.80355,0.21015 -2.59375,-1.90429 l -1.90625,-2.25 z m -225.68945,0.6582 c -0.0614,-0.0488 -0.0261,0.005 0.14257,0.19141 0.08,0.0885 0.16647,0.17239 0.24805,0.25976 -0.005,-0.0332 -0.0103,-0.0672 -0.0156,-0.0996 -0.17096,-0.1649 -0.32331,-0.31051 -0.375,-0.35156 z m 19.25,2.8418 c 0.58246,0 0.77937,0.45 0.43945,1 -0.33992,0.55 -0.8161,1 -1.05859,1 -0.24253,0 -0.44141,-0.45 -0.44141,-1 0,-0.55 0.47809,-1 1.06055,-1 z m 173.30468,5.3457 c 0.091,0.0138 0.19865,0.16765 0.31836,0.4668 0.28891,0.72187 0.25417,1.58372 -0.0781,1.91601 -0.33228,0.33229 -0.56879,-0.25834 -0.52539,-1.3125 0.03,-0.72809 0.13358,-1.09326 0.28515,-1.07031 z m -32.65625,6.00781 c 0.26385,0.0359 0.51372,0.19846 0.71094,0.51758 0.30695,0.49665 -0.11075,1.459 -0.92969,2.13867 -1.21066,1.00476 -1.49023,0.94307 -1.49023,-0.32812 0,-1.40016 0.91745,-2.43582 1.70898,-2.32813 z m -151.45117,0.0195 c 0.13791,0.32694 0.29354,0.64736 0.44141,0.97071 l -0.0195,-0.11914 c -0.1412,-0.28341 -0.54495,-1.1433 -0.42188,-0.85157 z m 119.0293,0.0293 c -3.1827,-0.0538 -6.09036,0.36707 -6.46094,0.93555 -0.44832,0.68771 -1.18794,0.60683 -2.21094,-0.24219 -2.00163,-1.6612 -8.61523,0.33009 -8.61523,2.59375 0,1.09101 -0.54902,0.8534 -1.9043,-0.82031 -1.87701,-2.31801 -1.93498,-2.3239 -4,-0.45508 -1.60407,1.45166 -2.0957,1.56024 -2.0957,0.46289 0,-2.16201 -8.08411,-1.47467 -9.78711,0.83203 -0.7276,0.98552 -2.03882,1.64457 -2.91211,1.46484 -0.8733,-0.17974 -2.00997,0.27026 -2.52734,1 -0.63426,0.8946 -0.76718,0.30611 -0.40625,-1.80468 0.50507,-2.95374 0.36586,-3.12089 -2.46485,-2.97852 -2.98118,0.14993 -4.85742,1.8663 -4.88672,4.4707 -0.009,0.80024 0.79461,0.3883 1.95118,-1 2.14501,-2.57482 2.29349,-2.31236 2.06445,3.66016 -0.12542,3.27017 0.41414,4.57843 2.88086,7 1.66855,1.63799 3.04526,3.81687 3.06054,4.8418 0.0222,1.49024 0.61781,1.77755 2.97461,1.43164 1.62095,-0.2379 2.71982,-0.0638 2.44141,0.38672 -0.27841,0.45048 0.21609,0.81836 1.09766,0.81836 0.95547,0 1.48374,-0.68326 1.30859,-1.69336 -0.34028,-1.96233 4.46452,-4.95432 5.07813,-3.16211 0.20454,0.5974 -0.24546,1.47711 -1,1.95508 -0.75453,0.47797 -0.92305,0.86914 -0.37305,0.86914 1.50318,0 3.0416,-1.23788 4.30664,-3.46875 0.98933,-1.74464 1.13756,-1.77656 1.16406,-0.25 0.0363,2.08889 1.71869,1.89898 4.42969,-0.5 2.59411,-2.29555 2.75841,-2.25507 5.09961,1.25 2.52049,3.77348 3.66954,3.77348 5.33984,0 1.24374,-2.80982 4.16016,-4.21191 4.16016,-2 0,0.55 0.43602,1.00004 0.96875,1 0.53273,0 0.71111,-0.675 0.39453,-1.5 -0.32972,-0.85922 0.004,-1.55134 0.78125,-1.61914 1.8602,-0.16234 2.11858,-0.1206 4.0332,0.625 1.28275,0.49954 1.56276,0.21034 1.1875,-1.22461 -0.33592,-1.28461 0.30923,-2.30337 2.04883,-3.23438 2.27644,-1.21831 2.36941,-1.48442 0.90039,-2.55859 -0.90167,-0.65932 -1.38185,-1.86669 -1.06836,-2.6836 1.13386,-2.95479 -0.99477,-4.30144 -6.95898,-4.40234 z m 134.25195,0.9707 c -0.25098,0.0296 -1.95766,0.53323 -5.84765,1.60743 -0.51869,0.57729 -1.10289,1.12229 -1.70508,1.6582 0.0696,0.006 0.13935,0.0106 0.20898,0.0176 4.21513,-2.07231 7.75574,-3.33174 7.34375,-3.28321 z m -100.80078,4.14258 c 0.1815,-0.002 0.34582,0.0367 0.48242,0.12109 0.60347,0.37296 0.46087,0.95045 -0.36328,1.47266 -2.15703,1.36676 -3.21461,1.02825 -1.86523,-0.59766 0.50975,-0.61417 1.20159,-0.98941 1.74609,-0.99609 z m -33.53516,3.82031 c 0.22132,10e-4 0.73197,0.12476 1.54688,0.33008 1.23749,0.31179 2.25,0.96532 2.25,1.45117 0,1.19004 -0.29439,1.12526 -2.55859,-0.5664 -1.17174,-0.87543 -1.60714,-1.21656 -1.23829,-1.21485 z m -23.83789,4.00977 c 0.0909,0.0138 0.19865,0.16765 0.31836,0.4668 0.28891,0.72187 0.25417,1.58372 -0.0781,1.91601 -0.33229,0.33229 -0.56879,-0.25834 -0.52539,-1.3125 0.03,-0.72809 0.13358,-1.09326 0.28515,-1.07031 z m -13.85742,1.1582 c 1.02331,0.11849 1.61407,1.04219 0.79883,1.85742 -0.90401,0.90401 -2.09205,0.79296 -2.74023,-0.25585 -0.30431,-0.49237 0.10398,-1.14843 0.9082,-1.45704 0.19533,-0.0749 0.38635,-0.12136 0.57031,-0.14257 0.16097,-0.0186 0.3167,-0.0189 0.46289,-0.002 z m 28.52539,1.4961 c 0.53274,0 0.9668,0.675 0.9668,1.5 0,0.825 -0.17644,1.5 -0.39258,1.5 -0.21616,0 -0.65216,-0.675 -0.96875,-1.5 -0.31659,-0.825 -0.1382,-1.5 0.39453,-1.5 z m -4.64844,2.32617 c -0.0389,0.0103 -0.0747,0.0317 -0.10742,0.0645 -0.26213,0.26213 -0.18089,0.95638 0.18164,1.54297 0.986,1.59546 1.5629,1.28555 0.88672,-0.47656 -0.28498,-0.74263 -0.68883,-1.203 -0.96094,-1.13086 z m 48.19922,2.1289 c -0.23176,0.0465 -0.27323,0.2378 -0.0762,0.55664 0.33602,0.54371 1.0352,0.98829 1.55274,0.98829 1.43843,0 1.1211,-0.71607 -0.61133,-1.38086 -0.22247,-0.0854 -0.41497,-0.13866 -0.57227,-0.16211 -0.11797,-0.0176 -0.21571,-0.0174 -0.29297,-0.002 z m 69.65039,4.47852 c -0.5523,0.58275 -1.12415,1.19571 -1.58593,1.67969 4.7e-4,0.002 -4.6e-4,0.005 0,0.008 -0.33517,0.34994 1.76866,-1.84223 1.61328,-1.68164 -0.009,-0.002 -0.0182,-0.004 -0.0274,-0.006 z m 0.82813,1.23242 c -0.97733,0.29186 -1.88723,0.63532 -2.46094,1.00586 -0.10372,0.2981 -0.32654,0.59325 -0.61328,0.88867 0.98854,-0.29872 1.9724,-0.60894 2.95508,-0.92383 0.0378,-0.32535 0.0742,-0.65196 0.11914,-0.9707 z m -93.44922,5.17774 c -0.35859,-0.0603 -0.61328,0.16081 -0.61328,0.59765 0,0.58246 0.45,1.0586 1,1.0586 0.54999,0 1,-0.19887 1,-0.44141 0,-0.24254 -0.45001,-0.71867 -1,-1.05859 -0.1375,-0.085 -0.26719,-0.13616 -0.38672,-0.15625 z m -0.55859,3.76562 c -0.15362,0.0489 0.31535,0.57906 1.35156,1.7461 2.11632,2.38353 2.59375,2.60032 2.59375,1.17968 0,-0.53065 -1.01251,-1.49514 -2.25,-2.14453 -0.83923,-0.44038 -1.36357,-0.71486 -1.5918,-0.77344 -0.0476,-0.0122 -0.0816,-0.0148 -0.10351,-0.008 z m -58.96289,2.1582 c -1.07377,0.0809 -1.7323,0.50363 -1.46289,0.93946 0.26935,0.43582 -0.014,0.79297 -0.62891,0.79297 -0.61493,0 -0.90807,0.3375 -0.65235,0.75 0.25577,0.4125 1.70189,0.81969 3.2129,0.90429 1.71548,0.096 2.26498,-0.14416 1.46484,-0.63867 -0.70478,-0.43557 -0.98821,-1.26554 -0.63086,-1.84375 0.37783,-0.61134 -0.1674,-0.9898 -1.30273,-0.9043 z m 50.16992,2.31641 c 0.2206,0.0152 0.46743,0.0561 0.73828,0.12695 1.1,0.28766 2,0.9204 2,1.40625 0,0.95338 -0.77982,1.01569 -2.75,0.22071 -1.7913,-0.72281 -1.53252,-1.86036 0.0117,-1.75391 z m -47.45117,4.43164 c -0.93005,-0.008 -1.97063,0.43438 -2.31055,0.98438 -0.78219,1.2656 0.54163,1.2656 2.5,0 1.29269,-0.8354 1.26782,-0.97118 -0.18945,-0.98438 z m 126.08789,1.77735 c -0.2728,0.16667 -0.52934,0.33076 -0.71875,0.48437 -0.63849,0.51779 -2.1887,2.45041 -1.60352,1.87305 0.78521,-0.77471 1.55046,-1.56938 2.32227,-2.35742 z m -164.28516,8.33203 c 0.67441,0.76996 1.32661,1.54136 1.96289,2.3164 0.55072,0.0712 1.25434,0.49127 1.94922,1.03125 0.27865,0.11727 0.53778,0.23186 0.81836,0.35156 -0.13404,-0.60579 -0.20132,-1.15982 -0.13086,-1.57617 0.28803,-1.70192 -0.11607,-1.88833 -4.59961,-2.12304 z m 37.83984,0.34375 c 0.33328,0.0303 0.54688,0.18851 0.54688,0.45507 0,0.47389 -0.675,1.12091 -1.5,1.4375 -0.82501,0.31658 -1.5,0.18875 -1.5,-0.28515 0,-0.47389 0.67499,-1.12091 1.5,-1.4375 0.20625,-0.0791 0.40469,-0.1312 0.58398,-0.15625 0.13448,-0.0188 0.25805,-0.0238 0.36914,-0.0137 z m -10.33203,6.53906 c -1.51915,0.0609 -2.78711,0.58984 -2.78711,1.49219 0,1.59773 1.71436,1.8618 5.50196,0.84765 1.74366,-0.46687 1.99676,-0.83887 1,-1.4707 -0.84786,-0.53745 -1.97419,-0.81573 -3.05079,-0.86719 -0.22428,-0.0107 -0.44704,-0.0106 -0.66406,-0.002 z m 90.25586,8.30664 c -0.56352,0.24952 -1.12286,0.50839 -1.67383,0.78125 -1.31761,0.65253 -8.53716,7.96508 1.67383,-0.78125 z m -8.02148,7.85742 c -0.53984,0.0759 -3.02201,0.8786 -4.84961,1.60547 -0.16401,0.3073 -0.33485,0.60946 -0.51563,0.90625 1.38829,-0.59782 3.03385,-1.32972 5.09766,-2.28711 0.2418,-0.11217 0.35877,-0.17992 0.37305,-0.21094 0.01,-0.0212 -0.0284,-0.0245 -0.10547,-0.0137 z m -11.19532,4.74024 c -0.31104,0.0268 -1.17173,0.43587 -2.15429,0.94531 0.49739,5e-4 0.9948,0.002 1.49219,0.002 0.79396,-0.6999 0.94146,-0.97134 0.6621,-0.94726 z"
       style="fill:#000000" />
  </g>
</svg>
