<?xml version="1.0" encoding="UTF-8" standalone="no"?>
<svg
   xmlns:dc="http://purl.org/dc/elements/1.1/"
   xmlns:cc="http://creativecommons.org/ns#"
   xmlns:rdf="http://www.w3.org/1999/02/22-rdf-syntax-ns#"
   xmlns:svg="http://www.w3.org/2000/svg"
   xmlns="http://www.w3.org/2000/svg"
   version="1.1"
   id="svg2"
   viewBox="0 0 92.173797 24.897141"
   height="7.0265265mm"
   width="26.013494mm">
  <defs
     id="defs4" />
  <metadata
     id="metadata7">
    <rdf:RDF>
      <cc:Work
         rdf:about="">
        <dc:format>image/svg+xml</dc:format>
        <dc:type
           rdf:resource="http://purl.org/dc/dcmitype/StillImage" />
        <dc:title></dc:title>
      </cc:Work>
    </rdf:RDF>
  </metadata>
  <g
     transform="translate(155.52727,-519.09378)"
     id="layer1">
    <path
       id="path4147"
       d="m -153.55248,543.94261 c -0.19645,-0.19646 -0.0382,-1.0639 0.80077,-4.38915 1.42781,-5.65915 2.40026,-8.87793 3.37232,-11.16224 0.19391,-0.45567 0.32484,-0.85619 0.29097,-0.89007 -0.1072,-0.1072 -1.25051,0.4869 -2.17821,1.13187 -1.92695,1.3397 -3.0479,2.87295 -2.99428,4.09564 0.0158,0.35972 -0.0301,0.62339 -0.11832,0.67941 -0.46947,0.2983 -1.14804,-0.18363 -1.14804,-0.81535 0,-0.63152 0.48089,-1.954 1.00567,-2.76567 0.55799,-0.86302 2.00933,-2.20286 3.44878,-3.18381 0.50631,-0.34503 1.53229,-0.86516 2.381,-1.20706 1.39792,-0.56314 1.5579,-0.60118 2.55432,-0.6074 1.25277,-0.008 1.75483,0.1963 2.01512,0.81927 0.81094,1.94086 -0.32565,5.30962 -2.09616,6.21287 -0.25408,0.12963 -0.49126,0.31201 -0.52706,0.4053 -0.041,0.10675 0.44456,0.70678 1.30976,1.61868 0.75617,0.79698 1.67266,1.88469 2.03665,2.41712 0.58989,0.86286 0.69525,0.96195 0.96962,0.91186 0.1693,-0.0309 5.33045,-0.7968 11.46923,-1.70199 14.81696,-2.18483 36.099237,-5.46908 38.622045,-5.9601 0.487205,-0.0948 2.108267,-0.36947 3.602362,-0.61033 2.211848,-0.35656 3.045679,-0.43977 4.488189,-0.44791 l 1.771653,-0.01 0.944882,0.51811 c 0.519685,0.28495 0.987385,0.59056 1.039334,0.67913 0.05195,0.0886 0.186144,0.16103 0.298211,0.16103 0.112069,0 2.142401,-0.63766 4.511848,-1.41701 2.369448,-0.77936 4.443668,-1.41716 4.609377,-1.41733 0.19722,-2.3e-4 0.592436,0.24659 1.144176,0.71448 0.463588,0.39313 1.018602,0.76518 1.233364,0.82677 1.018913,0.29222 2.296026,0.0204 3.223899,-0.68626 1.114869,-0.84903 1.378168,-1.64417 0.896057,-2.706 -0.228487,-0.50324 -0.467711,-0.69189 -1.11643,-0.88043 -0.363377,-0.10561 -14.233152,-1.42804 -17.075676,-1.6281 l -1.47206,-0.10361 -0.83109,0.68402 c -0.457098,0.37621 -1.149986,0.84971 -1.53975,1.05223 -1.199009,0.623 -2.790972,0.7364 -3.399936,0.2422 l -0.261481,-0.21221 0.295276,-0.0569 c 0.162401,-0.0313 0.647271,-0.10958 1.077486,-0.17395 1.06531,-0.15941 2.408713,-0.85262 3.425109,-1.7674 l 0.820187,-0.73819 0.776285,0 c 1.218066,0 2.956887,-0.52744 2.845846,-0.86323 -0.08439,-0.25519 -0.619304,-0.47612 -0.951129,-0.39284 -0.295411,0.0741 -0.459635,0.42929 -0.198509,0.42929 0.06496,0 0.11811,0.0531 0.11811,0.11812 0,0.18478 -0.308497,0.13848 -0.483668,-0.0726 -0.136314,-0.16425 -0.112836,-0.22976 0.169289,-0.47244 0.543224,-0.46726 1.532634,-0.34103 1.916274,0.24448 0.180589,0.27561 0.181363,0.3243 0.0093,0.58686 -0.103181,0.15748 -0.295318,0.32051 -0.42697,0.36229 -0.353886,0.11232 -0.291048,0.26047 0.144492,0.34067 0.730954,0.13458 2.381729,-0.47017 2.309346,-0.84603 -0.04921,-0.25552 -0.565747,-0.43509 -0.96402,-0.33513 -0.322122,0.0808 -0.424458,0.36821 -0.164224,0.46115 0.0812,0.029 0.110068,0.0931 0.06415,0.14254 -0.143243,0.15411 -0.448003,-0.0386 -0.448003,-0.28329 0,-0.69348 1.584118,-0.81014 2.083075,-0.1534 0.229838,0.30252 0.19411,0.50892 -0.150332,0.86844 l -0.311351,0.32498 0.319726,0.0802 c 0.474013,0.11897 1.322713,-0.0306 2.041672,-0.3597 0.57403,-0.2628 0.623326,-0.3144 0.507391,-0.53102 -0.09925,-0.18545 -0.246604,-0.23994 -0.648784,-0.23994 -0.508875,0 -0.775491,0.14621 -0.536237,0.29408 0.181568,0.11221 0.143758,0.29647 -0.06083,0.29647 -0.305205,0 -0.343633,-0.35478 -0.06823,-0.62992 0.360258,-0.35991 1.329379,-0.33275 1.735337,0.0486 0.3468,0.32581 0.369147,0.76323 0.0492,0.96304 -0.129921,0.0811 -0.23622,0.2216 -0.23622,0.31214 0,0.24713 1.460435,0.11125 2.167921,-0.2017 0.613362,-0.27132 0.656494,-0.44641 0.176629,-0.71704 -0.347654,-0.19606 -0.927228,-0.091 -0.927228,0.16805 0,0.0962 0.05315,0.17492 0.118111,0.17492 0.06496,0 0.11811,0.0531 0.11811,0.11811 0,0.18478 -0.308497,0.13848 -0.483669,-0.0726 -0.136313,-0.16424 -0.112835,-0.22976 0.16929,-0.47244 0.545956,-0.46961 1.532786,-0.3408 1.920327,0.25067 0.192232,0.29338 0.18993,0.32168 -0.05288,0.65009 -0.139621,0.18885 -0.253857,0.3653 -0.253857,0.39211 0,0.0268 0.220118,0.0839 0.489153,0.12696 0.56062,0.0896 1.964035,-0.31235 2.071916,-0.59348 0.107963,-0.28135 -0.20182,-0.51754 -0.678797,-0.51754 -0.489603,0 -0.67724,0.15759 -0.476143,0.3999 0.153617,0.18509 0.05148,0.3168 -0.17752,0.22893 -0.232336,-0.0892 -0.206133,-0.43745 0.05038,-0.66958 0.14288,-0.12931 0.424555,-0.19547 0.83214,-0.19547 0.496701,0 0.672349,0.0562 0.906054,0.2899 0.340461,0.34046 0.358581,0.50437 0.09704,0.87777 -0.161648,0.23079 -0.166426,0.2921 -0.02953,0.3788 0.425265,0.26934 1.912697,-0.0652 2.174684,-0.4891 0.130687,-0.21145 -0.267412,-0.46682 -0.727737,-0.46682 -0.434252,0 -0.600711,0.16887 -0.402215,0.40804 0.18328,0.22084 -0.06474,0.37016 -0.296016,0.17821 -0.229569,-0.19052 -0.217027,-0.305 0.06423,-0.58625 0.273642,-0.27364 1.346603,-0.32835 1.663779,-0.0848 0.364359,0.27975 0.466949,0.61605 0.272581,0.89355 -0.25005,0.35699 -0.144919,0.45099 0.60989,0.54529 1.215993,0.15193 1.799627,0.5396 2.212289,1.46946 0.565848,1.27504 0.148723,2.76103 -1.027421,3.66015 -1.224199,0.93586 -2.264641,1.27454 -3.551509,1.15608 -1.075452,-0.099 -1.465474,-0.25966 -2.321671,-0.95637 l -0.783795,-0.63779 -3.382837,1.10189 c -1.860561,0.60603 -3.823434,1.29112 -4.361941,1.52241 -1.132067,0.48624 -1.449289,0.46019 -2.177019,-0.17877 -0.237919,-0.20889 -0.765212,-0.53063 -1.17176,-0.71497 -0.60937,-0.2763 -0.900381,-0.33505 -1.657126,-0.33452 -0.917756,5.9e-4 -3.030121,0.27489 -5.50775,0.71506 -0.72364,0.12856 -6.642494,1.0821 -13.153011,2.11897 -6.51052,1.03687 -18.34289,2.92356 -26.29416,4.19264 -7.95127,1.26908 -14.54018,2.27544 -14.64204,2.23636 -0.10185,-0.0391 -0.56916,-0.58477 -1.03847,-1.21264 -1.21103,-1.6202 -3.14294,-3.77584 -3.70369,-4.13262 -0.26205,-0.16672 -0.59466,-0.40702 -0.73912,-0.53398 -0.20783,-0.18264 -0.27301,-0.19632 -0.31219,-0.0655 -0.0854,0.28506 -1.19964,5.67651 -1.60863,7.78344 -0.29016,1.49484 -0.78076,2.56547 -1.4005,3.05631 -0.46858,0.37113 -0.97099,0.55801 -1.11446,0.41455 z m 5.01614,-12.07417 c 0.87779,-0.44892 1.34282,-0.77618 2.02452,-1.42473 0.71369,-0.67899 0.98527,-1.19862 1.16022,-2.21992 0.15986,-0.93324 0.0765,-1.54289 -0.26048,-1.90457 -0.96912,-1.04023 -2.29981,0.97589 -3.70873,5.61907 -0.10433,0.3438 -0.007,0.33518 0.78447,-0.0698 z m 5.14787,3.10424 c -0.39691,-0.21539 -0.51818,-0.43353 -0.62055,-1.11626 -0.0914,-0.60983 0.16387,-1.88216 0.51576,-2.57025 0.38265,-0.74824 1.16332,-1.5299 1.87642,-1.87878 0.87272,-0.42699 2.00875,-0.46978 2.38899,-0.09 0.30957,0.30919 0.42434,1.00349 0.2587,1.56491 -0.0707,0.23974 -0.15691,0.68836 -0.1915,0.99692 -0.0605,0.53946 -0.0513,0.56103 0.23922,0.56103 0.38355,0 0.99259,-0.59624 0.99259,-0.97173 0,-0.3998 0.57228,-1.25036 1.23201,-1.83107 0.69949,-0.61572 1.67814,-1.00147 2.5873,-1.01984 0.84062,-0.017 1.03709,0.16577 0.90422,0.84106 -0.25413,1.29153 -0.9047,1.96545 -1.52073,1.5753 -0.1369,-0.0867 -0.13212,-0.14802 0.0295,-0.3788 0.2275,-0.3248 0.25767,-1.1252 0.0452,-1.19993 -0.20655,-0.0727 -0.67045,0.1157 -1.10931,0.45044 -0.88919,0.67821 -1.29222,2.40295 -0.71762,3.07096 0.25747,0.29933 0.29315,0.30717 0.79725,0.17536 0.79026,-0.20665 1.70708,-0.8638 2.87377,-2.05983 1.62322,-1.66405 1.31114,-1.05945 3.715,-7.19727 0.35391,-0.90364 0.82142,-1.49402 1.18309,-1.49402 0.62609,0 0.42349,0.89899 -0.81712,3.62581 -1.23506,2.71464 -1.4365,3.22458 -1.27377,3.22458 0.0716,0 0.45148,-0.29751 0.84424,-0.66114 1.03251,-0.95592 1.84136,-1.46154 2.39218,-1.49536 0.36689,-0.0225 0.47331,0.0162 0.50591,0.18396 0.0731,0.37631 -0.31782,0.78103 -1.16798,1.20916 -0.87813,0.44222 -1.99926,1.19755 -1.99926,1.34694 0,0.0489 0.10517,0.21022 0.23371,0.35844 0.21481,0.24767 0.29838,0.52839 0.38404,1.29003 0.0175,0.15577 0.12343,0.34062 0.23537,0.41078 0.27263,0.17089 1.47695,-0.42199 2.25449,-1.10988 0.40793,-0.3609 0.60435,-0.46664 0.69619,-0.37479 0.37082,0.37081 -0.7974,1.63274 -2.11624,2.28598 -0.99413,0.49241 -1.69169,0.5675 -2.03962,0.21957 -0.22492,-0.22491 -0.25758,-0.37164 -0.23312,-1.04727 0.0352,-0.97348 0.0233,-1.08098 -0.11986,-1.08098 -0.12195,0 -0.7005,0.86062 -1.23129,1.83163 -0.40304,0.7373 -0.70917,1.00301 -1.15558,1.00301 -0.3874,0 -0.38728,0.0182 -0.007,-1.08984 0.10525,-0.30708 0.16457,-0.58514 0.13182,-0.61789 -0.0328,-0.0328 -0.34844,0.20986 -0.70151,0.53914 -1.3767,1.28394 -2.34954,1.75914 -3.60134,1.75914 -0.66198,0 -0.81307,-0.0413 -1.06172,-0.28991 -0.15945,-0.15944 -0.28991,-0.38976 -0.28991,-0.51181 0,-0.34982 -0.12039,-0.38477 -0.46017,-0.13356 -0.17345,0.12824 -0.51905,0.26621 -0.76801,0.30661 -0.3136,0.0509 -0.61279,0.22909 -0.97393,0.58008 -0.87769,0.85301 -2.35646,1.23425 -3.13941,0.80936 z m 2.1646,-1.26993 c 0.38319,-0.26061 0.39982,-0.30197 0.36789,-0.91536 -0.0333,-0.64028 0.0228,-0.7848 0.6168,-1.58839 0.26401,-0.35717 0.003,-0.81404 -0.4924,-0.8623 -0.30371,-0.0296 -0.47853,0.0578 -0.9083,0.45393 -1.55155,1.43017 -1.18435,4.00054 0.41601,2.91212 z m 18.34705,-1.65161 c -0.0323,-0.0841 0.0225,-0.3831 0.12182,-0.66445 0.0993,-0.28136 0.17893,-0.62447 0.17703,-0.76246 -0.003,-0.22667 -0.0372,-0.21383 -0.35267,0.13296 -0.41081,0.45158 -0.58875,0.48629 -0.58875,0.11486 0,-0.32503 0.22703,-0.67986 0.88585,-1.38455 0.70521,-0.75429 1.32983,-1.61725 1.4888,-2.05687 0.1125,-0.31112 0.22628,-0.39772 0.65246,-0.4966 0.28391,-0.0659 0.51619,-0.10216 0.51619,-0.0806 0,0.0215 -0.18602,0.50045 -0.41338,1.0643 -0.22736,0.56384 -0.41339,1.04142 -0.41339,1.06128 0,0.18863 0.43922,-0.13635 1.42782,-1.05642 1.18602,-1.1038 1.75927,-1.5059 2.14688,-1.5059 0.45925,0 0.37907,0.37606 -0.56238,2.63748 -0.23881,0.57365 -0.40706,1.07013 -0.37389,1.1033 0.17681,0.17682 0.8959,-0.36788 1.59367,-1.20718 0.22267,-0.26782 0.29583,-0.29899 0.38205,-0.16275 0.25254,0.39906 0.10715,0.73102 -0.64178,1.46535 -0.79853,0.78297 -1.88406,1.40503 -2.33925,1.3405 -0.23333,-0.0331 -0.27143,-0.10145 -0.25224,-0.45261 0.0124,-0.2275 0.19023,-0.81214 0.3951,-1.29919 0.43803,-1.04132 0.5388,-1.41703 0.38008,-1.41703 -0.0636,0 -0.94586,0.85039 -1.96066,1.88976 -1.75339,1.79585 -2.13473,2.08771 -2.26936,1.73687 z m 8.88833,0.0643 c -0.14471,-0.25653 1.75127,-7.11789 2.44852,-8.86097 0.21498,-0.53741 0.35608,-0.9986 0.31357,-1.02488 -0.0425,-0.0263 -0.35352,0.11172 -0.69114,0.30665 -0.6752,0.38982 -1.0861,0.88059 -1.19885,1.43186 -0.091,0.44498 -0.34816,0.61789 -0.7638,0.51357 -0.4127,-0.10358 -0.49184,-0.33432 -0.31598,-0.92128 0.28904,-0.96473 1.86249,-2.104 3.54842,-2.56926 1.52015,-0.41951 2.41525,-0.26207 2.72809,0.47986 0.27705,0.65704 0.22012,2.36523 -0.11268,3.38098 -0.29279,0.89365 -0.89127,1.71613 -1.47675,2.02947 -0.17024,0.0911 -0.30952,0.2403 -0.30952,0.33154 0,0.14996 0.44873,0.76144 1.99524,2.7189 0.57582,0.72882 0.5611,0.99935 -0.0583,1.07232 -0.53637,0.0632 -0.99791,-0.27578 -1.70069,-1.24899 -1.20061,-1.66263 -2.17402,-2.45822 -2.3012,-1.88081 -0.68062,3.08997 -0.83605,3.64145 -1.13251,4.01835 -0.23542,0.29928 -0.84981,0.43999 -0.97239,0.22269 z m 3.47664,-5.68308 c 1.29858,-0.98305 1.75624,-1.82161 1.75624,-3.21793 0,-0.82946 -0.18091,-1.26762 -0.56297,-1.36351 -0.42281,-0.10612 -0.7831,0.32278 -1.32287,1.57478 -0.46646,1.08197 -1.06692,2.97841 -1.06692,3.36967 0,0.36157 0.39945,0.24038 1.19652,-0.36301 z m 3.05172,2.9921 c -0.23948,-0.25491 -0.2806,-0.41677 -0.2776,-1.09252 0.009,-2.07822 1.29241,-3.80509 2.82742,-3.80509 0.89069,0 1.03187,0.38093 0.84268,2.27362 -0.0614,0.61449 -0.0463,0.67914 0.15884,0.67914 0.27651,0 1.47127,-1.39702 1.76768,-2.06693 0.11497,-0.25984 0.54562,-1.64009 0.957,-3.06721 0.69058,-2.39573 0.95504,-3.01547 1.286757,-3.01547 0.21122,0 0.12484,1.1304 -0.168227,2.20151 -0.1575,0.57559 -0.60886,1.97664 -1.00303,3.11345 -0.78178,2.2547 -0.98569,3.18898 -0.69598,3.18898 0.21179,0 1.830407,-1.65204 2.260917,-2.30759 0.19666,-0.29946 0.60299,-1.48593 1.09213,-3.18898 0.80434,-2.80049 0.98323,-3.24359 1.30955,-3.24359 0.16501,0 0.18242,0.11842 0.12585,0.8563 -0.0639,0.83357 -0.24982,1.47974 -1.26214,4.3867 -0.63328,1.81851 -0.88695,2.89919 -0.71979,3.06636 0.20715,0.20714 1.32692,-0.99044 1.57243,-1.68168 0.42148,-1.1867 1.88054,-2.22277 3.21664,-2.28412 0.70253,-0.0322 0.709,-0.0296 0.74765,0.30898 0.0476,0.41663 -0.13816,0.55019 -0.5863,0.42167 -0.94008,-0.26961 -2.341,0.76042 -2.59959,1.91136 -0.39224,1.74569 0.80208,1.44645 1.68513,-0.42221 0.27913,-0.59067 0.40126,-0.72987 0.69358,-0.79057 0.19514,-0.0405 0.35532,-0.0405 0.35596,0 5.9e-4,0.0405 -0.14416,0.48429 -0.32176,0.98616 -0.24701,0.698 -0.29035,0.94506 -0.18439,1.05102 0.16221,0.1622 0.45085,7.1e-4 1.07757,-0.60289 0.25562,-0.24619 0.43594,-0.34029 0.510049,-0.26619 0.185814,0.18582 -0.169809,0.86838 -0.703179,1.34967 -0.95626,0.86288 -1.70378,1.03978 -1.77509,0.42007 -0.0447,-0.38824 -0.0989,-0.40101 -0.35708,-0.0841 -0.24992,0.30671 -1.05718,0.5864 -1.37195,0.47533 -0.1328,-0.0469 -0.33801,-0.27852 -0.45602,-0.51479 l -0.21454,-0.42959 -0.40302,0.40302 c -0.54431,0.54431 -1.40247,1.03254 -1.73259,0.98571 -0.291737,-0.0414 -0.298027,-0.0877 -0.14959,-1.10129 l 0.0865,-0.59055 -0.812077,0.83977 c -1.51433,1.56596 -2.627,1.80022 -2.22628,0.46872 0.0941,-0.31253 0.14046,-0.61768 0.10311,-0.6781 -0.0374,-0.0604 -0.30122,0.1052 -0.58639,0.36806 -0.32049,0.29541 -0.63238,0.47793 -0.81672,0.47793 -0.19674,0 -0.43973,0.15664 -0.71407,0.4603 -0.79145,0.87604 -1.98565,1.12977 -2.54002,0.53967 z m 1.79183,-0.87153 c 0.23189,-0.18787 0.27883,-0.33532 0.27883,-0.87587 0,-0.48879 0.0659,-0.73913 0.26575,-1.00948 0.29529,-0.39948 0.33802,-0.72199 0.12401,-0.936 -0.27122,-0.27122 -0.65775,-0.15211 -1.07026,0.32981 -0.64433,0.75276 -0.87681,1.90826 -0.49391,2.45493 0.22566,0.32217 0.52785,0.33452 0.89558,0.0366 z m -18.44164,-2.26399 c 0,-0.0702 0.16334,-0.77446 0.36299,-1.56496 0.42225,-1.67193 0.55957,-1.85067 1.42174,-1.85067 0.31761,0 0.57747,0.0498 0.57747,0.11079 0,0.13904 -1.62327,2.9459 -1.86557,3.22582 -0.19877,0.22964 -0.49663,0.27703 -0.49663,0.079 z"
       style="fill:#ffffff;fill-opacity:1" />
  </g>
</svg>
